<svg width="18" height="18" viewBox="0 0 18 18" fill="none" xmlns="http://www.w3.org/2000/svg">
<path fill-rule="evenodd" clip-rule="evenodd" d="M8.93226 17.0759C10.4095 17.0736 11.4846 17.0547 12.1575 17.0193C12.8785 16.9813 13.5046 16.8738 14.0359 16.6967C14.6683 16.469 15.2186 16.1212 15.6866 15.6532C16.1546 15.1852 16.5024 14.635 16.7301 14.0025C16.9072 13.4713 17.0147 12.8451 17.0526 12.1242C17.0906 11.4032 17.1096 10.2205 17.1096 8.57617L17.1089 7.94339C17.106 6.62646 17.0935 5.66104 17.0716 5.04715C17.021 4.31352 16.9072 3.68108 16.7301 3.14983C16.5024 2.51739 16.1546 1.96717 15.6866 1.49916C15.2186 1.03116 14.6683 0.683315 14.0359 0.455636C13.5046 0.278553 12.8785 0.171038 12.1575 0.133092C11.4366 0.0951451 10.2539 0.0761719 8.60955 0.0761719L8.28684 0.0764249C6.80957 0.078786 5.73448 0.0976749 5.06156 0.133092C4.34058 0.171038 3.71446 0.278553 3.18321 0.455636C2.55077 0.683315 2.00055 1.03116 1.53254 1.49916C1.06454 1.96717 0.716693 2.51739 0.489015 3.14983C0.311931 3.68108 0.204417 4.3072 0.16647 5.02818C0.128524 5.74916 0.10955 6.93183 0.10955 8.57617L0.109803 8.89888C0.112165 10.3762 0.131053 11.4512 0.16647 12.1242C0.204417 12.8451 0.311931 13.4713 0.489015 14.0025C0.716693 14.635 1.06454 15.1852 1.53254 15.6532C2.00055 16.1212 2.55077 16.4564 3.18321 16.6588C3.71446 16.8611 4.34058 16.9813 5.06156 17.0193C5.78254 17.0572 6.96521 17.0762 8.60955 17.0762L8.93226 17.0759ZM9.51999 15.5577L7.67326 15.5576C6.81876 15.5551 6.14416 15.5426 5.64945 15.5201C4.71344 15.4695 4.0304 15.3683 3.60034 15.2165C2.84141 14.9129 2.29752 14.369 1.96865 13.5848C1.81686 13.1548 1.71567 12.4717 1.66508 11.5357C1.63978 10.9792 1.62713 10.1949 1.62713 9.18304L1.6276 7.63988C1.6301 6.78538 1.64259 6.11078 1.66508 5.61607C1.71567 4.65476 1.81686 3.97173 1.96865 3.56696C2.27222 2.78274 2.81612 2.23884 3.60034 1.93527C4.0304 1.78348 4.71344 1.68229 5.64945 1.6317C6.206 1.6064 6.99022 1.59375 8.00213 1.59375H9.21641C10.2283 1.59375 11.0125 1.6064 11.5691 1.6317C12.5304 1.68229 13.2134 1.78348 13.6182 1.93527C14.4024 2.23884 14.9463 2.78274 15.2499 3.56696C15.4017 3.97173 15.5029 4.65476 15.5535 5.61607C15.5788 6.14732 15.5914 6.93155 15.5914 7.96875V9.18304C15.5914 10.1949 15.5788 10.9792 15.5535 11.5357C15.5029 12.4717 15.4017 13.1548 15.2499 13.5848C14.9463 14.3438 14.4024 14.8876 13.6182 15.2165C13.2134 15.3683 12.5304 15.4695 11.5691 15.5201C11.0378 15.5454 10.2536 15.558 9.21641 15.558L9.51999 15.5577ZM13.1629 5.04715C13.4412 5.04715 13.6752 4.94596 13.8649 4.74358C14.0547 4.5412 14.1622 4.30087 14.1875 4.0226C14.1875 3.74433 14.0863 3.504 13.8839 3.30162C13.6815 3.09924 13.4412 2.99805 13.1629 2.99805C12.8846 2.99805 12.6443 3.09924 12.4419 3.30162C12.2395 3.504 12.1384 3.74433 12.1384 4.0226C12.1384 4.30087 12.2395 4.5412 12.4419 4.74358C12.6443 4.94596 12.8846 5.04715 13.1629 5.04715ZM8.60962 12.9396C9.39385 12.9396 10.1212 12.7435 10.7915 12.3514C11.4619 11.9593 11.9932 11.4281 12.3853 10.7577C12.7774 10.0873 12.9735 9.35998 12.9735 8.57575C12.9735 7.79153 12.7774 7.06422 12.3853 6.39383C11.9932 5.72345 11.4619 5.1922 10.7915 4.80008C10.1212 4.40797 9.39385 4.21191 8.60962 4.21191C7.82539 4.21191 7.09809 4.40797 6.4277 4.80008C5.75731 5.1922 5.22606 5.72345 4.83395 6.39383C4.44184 7.06422 4.24578 7.79153 4.24578 8.57575C4.24578 9.35998 4.44184 10.0873 4.83395 10.7577C5.22606 11.4281 5.75731 11.9593 6.4277 12.3514C7.09809 12.7435 7.82539 12.9396 8.60962 12.9396ZM8.60983 11.4224C7.8256 11.4224 7.15522 11.1442 6.59867 10.5876C6.04212 10.0311 5.76385 9.36068 5.76385 8.57645C5.76385 7.79222 6.04212 7.12184 6.59867 6.56529C7.15522 6.00874 7.8256 5.73047 8.60983 5.73047C9.39406 5.73047 10.0644 6.00874 10.621 6.56529C11.1775 7.12184 11.4558 7.79222 11.4558 8.57645C11.4558 9.36068 11.1775 10.0311 10.621 10.5876C10.0644 11.1442 9.39406 11.4224 8.60983 11.4224Z" fill="black"/>
</svg>
