<svg width="160" height="21" viewBox="0 0 160 21" fill="none" xmlns="http://www.w3.org/2000/svg">
<path fill-rule="evenodd" clip-rule="evenodd" d="M121.109 0C122.869 0 124.631 1.37169 125.206 3.17888C125.744 4.88492 125.509 8.34671 123.054 12.4995C121.269 15.7041 117.797 17.9502 115.887 19.0047L115.726 19.0939C114.424 19.8226 113.078 20.5753 111.633 20.5753C109.735 20.5753 107.785 19.1882 107.185 17.4204C106.846 16.1619 106.144 13.5403 109.143 8.50445C110.546 6.00113 113.61 3.01257 116.427 1.41455C118.155 0.488663 119.753 0 121.07 0H121.109ZM112.475 18.4132C113.589 18.7252 115.146 18.5178 116.861 17.8319C118.98 16.7637 122.387 9.2023 122.162 5.04781C122.004 3.21489 121.367 2.17241 120.156 1.76948L119.964 1.71118C119.055 1.38791 118.071 1.3396 117.135 1.5723C114.505 3.21318 109.822 10.3785 110.277 15.915C110.671 17.3073 111.391 18.1303 112.475 18.4132ZM102.444 10.4596C105.286 5.62268 106.316 2.68727 105.687 1.22643C105.448 0.674323 104.982 0.324543 104.26 0.158226H104.24H104.217C102.916 0.538869 100.648 1.94828 98.1493 3.93036C95.6731 5.88771 93.3866 8.07376 91.3201 10.4596C93.3039 6.76632 94.1183 3.03191 93.3004 1.16641C93.0535 0.602309 92.6729 0.261102 92.1705 0.151367H92.1499H92.1293C90.7868 0.542298 88.5287 2.03744 85.9259 4.25614C83.4546 6.36675 81.1671 8.68351 79.088 11.1814C80.4494 8.80499 82.0029 5.8953 81.8657 4.08982C81.804 3.08678 81.2485 0.977808 80.1871 0.394841C79.9865 0.286025 79.7604 0.233072 79.5324 0.241517C79.3044 0.249963 79.0828 0.319496 78.8909 0.442851C75.976 2.08887 73.3064 4.59906 72.5588 5.32948L72.4971 5.38949L72.8932 5.78728L72.9532 5.72213C74.5152 4.0401 76.4287 2.86045 77.4506 2.59468C78.2565 2.83301 78.5805 3.57887 78.6131 4.14812C78.8154 7.47274 73.3475 15.7903 71.4117 18.4428L71.4015 18.4651C71.1768 19.0892 71.1837 19.559 71.4203 19.8608C71.8284 20.3752 72.8092 20.2757 73.4573 20.2037C73.5979 20.1883 73.723 20.1746 73.8259 20.1694H73.8722L74.2957 19.4647C75.1444 18.0467 76.427 15.9052 77.5535 14.2094C82.0303 7.69393 87.7159 3.07649 90.0015 2.3272C90.173 2.58611 90.3444 2.95132 90.3016 3.62859C90.1507 7.19309 87.1024 12.1154 84.8769 15.7092L84.8766 15.7097C84.2319 16.7505 83.6763 17.6507 83.2545 18.4068V18.4239C83.0591 19.0583 83.0728 19.5076 83.2974 19.7956C83.6403 20.2449 84.417 20.214 85.1663 20.1831C85.2611 20.1831 85.3559 20.1792 85.4493 20.1753L85.4494 20.1752C85.5402 20.1714 85.6297 20.1677 85.7167 20.1677H85.7682L85.7922 20.1231C86.478 18.8715 87.9646 16.2618 89.2985 14.2026C93.345 7.83795 99.7216 3.14336 102.071 2.36321C102.796 3.11249 102.979 4.10354 99.6805 9.78403C99.4216 10.2264 99.1387 10.6928 98.8369 11.1866L98.8065 11.2365L98.8065 11.2366C97.5314 13.3332 96.0943 15.6962 96.1964 17.0162C96.2427 17.8736 96.7434 19.4167 97.7104 20.1557C97.8493 20.2689 98.3139 20.3494 98.7597 20.3494C99.0356 20.3653 99.3112 20.3154 99.5639 20.2037C101.976 18.7497 104.07 16.8276 105.625 15.3171L105.683 15.2622L105.34 14.8576L105.277 14.9176C103.876 16.351 101.88 17.757 100.617 18.1993C99.7679 17.9301 99.5982 17.162 99.5742 16.7265C99.5057 15.4845 100.678 13.4825 101.92 11.3619L101.923 11.3563C102.093 11.0666 102.27 10.7648 102.444 10.4596ZM3.91616 5.33701C3.91616 6.90416 4.68945 7.8352 8.91596 8.59477C15.4778 9.79328 16.8237 11.9177 16.8237 14.7451C16.8388 15.5333 16.6694 16.3142 16.3291 17.0254C15.9889 17.7365 15.4871 18.3584 14.8639 18.8413C13.4271 19.978 11.3353 20.5559 8.64848 20.5559C3.74299 20.5559 0.678985 18.4058 0.0171461 14.5033L0 14.4021H2.95255L2.97142 14.4604C3.7207 17.0118 5.58105 18.212 8.8388 18.212C13.1802 18.212 13.8266 16.2162 13.8266 15.016C13.8266 12.6532 11.8016 11.8388 8.06037 11.165C2.93541 10.2391 0.939605 8.67878 0.939605 5.60963C0.939605 2.35359 3.90588 0.170898 8.32271 0.170898C11.0044 0.170898 13.0636 0.798445 14.4439 2.04496C15.4366 2.94493 16.0644 4.17799 16.2082 5.51019L16.2185 5.6062H13.2899L13.2728 5.54277C12.5338 2.87826 10.3202 2.5182 8.24726 2.5182C5.49532 2.5182 3.91616 3.54525 3.91616 5.33701ZM20.4619 0.544922H23.3665V20.1823H20.4619V0.544922ZM37.152 2.58335C40.2058 2.58335 42.2136 3.78358 43.1223 6.1343L43.1446 6.18917H46.1092L46.0851 6.08458C45.6736 4.3031 43.9796 0.170898 37.1778 0.170898C31.072 0.170898 26.9707 4.30482 26.9707 10.4585C26.9707 16.6123 30.7874 20.5747 36.6977 20.5747C39.9931 20.5747 42.1055 19.6454 43.4995 17.5656C43.519 18.4188 43.5934 19.2699 43.7224 20.1135L43.7379 20.1821H45.984V9.38006H37.0354V11.8559H43.1703V12.2726C43.1703 16.0447 41.0082 18.1297 37.0852 18.1297C32.7369 18.1297 30.0347 15.1291 30.0347 10.3008C30.0347 8.08553 30.6537 6.18574 31.8213 4.82434C33.0678 3.35835 34.9145 2.58335 37.152 2.58335ZM65.061 16.4891C64.929 14.3098 64.929 11.7636 64.929 9.0751V0.544922H67.6706V20.1823H64.3906L64.3649 20.1463C61.8033 16.5594 54.5916 6.31458 52.9422 3.66894C53.0725 6.07282 53.0725 8.91564 53.0725 12.1923V20.1823H50.3291V0.544922H53.796L53.82 0.580929C55.273 2.65329 56.9817 5.02318 58.6455 7.33079L58.8078 7.55595C61.5735 11.3864 64.1917 15.0179 65.061 16.4891ZM144.816 3.60075H144.838C145.57 3.42929 147.278 1.54322 147.362 0.63962V0.619045L147.353 0.600184C147.192 0.217827 144.209 0.2264 143.206 0.31556C140.839 0.742497 138.396 3.30069 135.282 7.31459C135.872 5.91718 136.119 4.88499 136.057 4.09627C135.999 3.09494 135.445 0.979113 134.382 0.394432C134.182 0.285615 133.956 0.232662 133.727 0.241107C133.499 0.249553 133.278 0.319086 133.086 0.442441C130.181 2.07989 127.501 4.59694 126.75 5.32907L126.687 5.38908L127.085 5.78687L127.145 5.72172C128.707 4.03797 130.622 2.86004 131.644 2.59427C132.446 2.8326 132.772 3.57846 132.808 4.14771C133.007 7.46719 127.541 15.7882 125.607 18.4424L125.595 18.4647C125.372 19.0888 125.379 19.5586 125.615 19.8604C125.852 20.1621 126.342 20.2633 126.816 20.2633C127.088 20.2633 127.362 20.2363 127.597 20.2132L127.645 20.2084C127.786 20.193 127.913 20.1793 128.016 20.1741H128.06L128.084 20.1364C129.605 17.7085 130.926 15.495 132.09 13.542L132.1 13.5247L132.1 13.5245C135.677 7.52355 137.84 3.89663 140.385 3.1378C141.402 3.13316 142.417 3.23081 143.415 3.42929C143.878 3.51615 144.345 3.57342 144.816 3.60075ZM156.419 0.116211C158.43 0.116211 159.801 0.846634 159.973 2.02285C160.371 4.60162 156.429 7.8971 145.414 14.1691C145.376 14.744 145.376 15.3209 145.414 15.8957C145.812 17.3 146.53 18.1196 147.612 18.4025C148.878 18.754 150.898 18.2465 152.242 17.6258C153.259 17.1577 155.764 15.2665 157.008 13.7131L157.053 13.6565L157.567 13.9342L157.5 14.0148C156.041 15.762 153.715 17.6224 151.431 18.8706C149.939 19.7022 148.17 20.5595 146.361 20.5595C144.761 20.5595 142.919 19.1226 142.34 17.42C142 16.1615 141.299 13.5399 144.298 8.50407C145.913 5.62353 149.183 2.86987 151.544 1.53076C153.24 0.618591 154.971 0.116211 156.419 0.116211ZM156.729 5.28232C157.068 4.37358 156.839 3.42712 156.101 2.65897H156.103C155.136 1.65421 153.601 1.23928 152.363 1.64564C150.004 3.24023 146.198 8.6361 145.491 13.5707C152.957 9.15391 156.076 7.15639 156.729 5.28232Z" fill="black"/>
</svg>
