<svg width="17" height="18" viewBox="0 0 17 18" fill="none" xmlns="http://www.w3.org/2000/svg">
<path fill-rule="evenodd" clip-rule="evenodd" d="M17 17.0762H13.6V11.127C13.6 9.495 12.8801 8.58447 11.5889 8.58447C10.1839 8.58447 9.35002 9.53325 9.35002 11.127V17.0762H5.95002V6.02617H9.35002V7.2688C9.35002 7.2688 10.4168 5.39697 12.8206 5.39697C15.2252 5.39697 17 6.86436 17 9.90056V17.0762ZM2.07572 4.25894C1.80206 4.25793 1.53127 4.20316 1.27884 4.09749C1.0264 3.99181 0.79726 3.83728 0.604502 3.64302C0.411744 3.44876 0.259149 3.21851 0.15543 2.96526C0.0517109 2.71201 -0.00110098 2.4408 1.73975e-05 2.16714C-0.000989061 1.89355 0.0519007 1.62258 0.15567 1.36943C0.259439 1.11628 0.412054 0.885843 0.604801 0.691675C0.797548 0.497507 1.02665 0.343248 1.27903 0.237622C1.53141 0.131996 1.80213 0.0771746 2.07572 0.0761719C2.62811 0.0784219 3.157 0.299975 3.54609 0.69209C3.93517 1.0842 4.1526 1.61475 4.15056 2.16714C4.15179 2.44076 4.0991 2.71202 3.99547 2.96526C3.89184 3.2185 3.73932 3.44875 3.54663 3.64302C3.35394 3.83729 3.12486 3.9918 2.87247 4.09749C2.62008 4.20317 2.34934 4.25793 2.07572 4.25894ZM1.73975e-05 17.0762H4.25002V6.02617H1.73975e-05V17.0762Z" fill="black"/>
</svg>
