<svg width="20" height="20" viewBox="0 0 24 24" fill="none" xmlns="http://www.w3.org/2000/svg">
<path fill-rule="evenodd" clip-rule="evenodd" d="M18.965 16.61L17.792 15.437C17.206 14.851 16.256 14.851 15.671 15.437L14.749 16.359C14.543 16.565 14.231 16.634 13.965 16.517C12.629 15.932 11.309 15.045 10.132 13.868C8.96 12.696 8.076 11.382 7.49 10.051C7.368 9.776 7.439 9.453 7.652 9.24L8.478 8.414C9.149 7.743 9.149 6.794 8.563 6.208L7.39 5.035C6.609 4.254 5.343 4.254 4.562 5.035L3.91 5.686C3.169 6.427 2.86 7.496 3.06 8.556C3.554 11.169 5.072 14.03 7.521 16.479C9.97 18.928 12.831 20.446 15.444 20.94C16.504 21.14 17.573 20.831 18.314 20.09L18.965 19.439C19.746 18.658 19.746 17.392 18.965 16.61V16.61Z" stroke="#ffffff" stroke-width="1.5" stroke-linecap="round" stroke-linejoin="round"/>
<path d="M13 6.991C14.031 6.977 15.067 7.359 15.854 8.146" stroke="#ffffff" stroke-width="1.5" stroke-linecap="round" stroke-linejoin="round"/>
<path d="M18.682 5.318C17.113 3.749 15.056 2.964 13 2.964" stroke="#ffffff" stroke-width="1.5" stroke-linecap="round" stroke-linejoin="round"/>
<path d="M17.009 11C17.023 9.969 16.641 8.933 15.854 8.146" stroke="#ffffff" stroke-width="1.5" stroke-linecap="round" stroke-linejoin="round"/>
<path d="M18.682 5.318C20.251 6.887 21.036 8.944 21.036 11" stroke="#ffffff" stroke-width="1.5" stroke-linecap="round" stroke-linejoin="round"/>
</svg>
