<svg width="257" height="22" viewBox="0 0 257 22" fill="none" xmlns="http://www.w3.org/2000/svg">
<path d="M5.65683 16.5134C5.31875 16.5471 4.49102 16.5808 3.62571 16.5808C2.79668 16.5808 1.96766 16.5471 1.62957 16.5134C1.29148 16.4798 1.10363 16.3269 1.08679 15.9033C1.03627 14.5328 1.03629 12.2012 1.03629 10.1869C1.03629 8.20756 1.03627 6.32799 1.08679 4.9575C1.10363 4.53521 1.27335 4.36552 1.62957 4.34868C2.40679 4.29816 4.86149 4.26318 6.9263 4.26318C8.05974 4.26318 9.56626 4.29816 10.5313 4.38235C12.5275 4.55205 12.8837 5.12719 12.8837 8.37596C12.8837 11.4848 12.5106 12.1843 10.5313 12.354C9.56626 12.4382 8.05974 12.4836 6.9263 12.4836H6.35116C6.23199 12.4836 6.18146 12.5341 6.18146 12.6532V15.8981C6.18146 16.3269 6.01176 16.4798 5.65683 16.5134ZM6.16464 7.56377V9.18427C6.16464 9.44334 6.21513 9.52365 6.33431 9.52365H7.40039C7.65946 9.52365 7.7048 9.455 7.75532 9.18427C7.80724 8.91679 7.82983 8.64445 7.82268 8.37207C7.82975 8.0997 7.80716 7.82737 7.75532 7.55988C7.7048 7.28915 7.65428 7.22179 7.40039 7.22179H6.33431C6.21384 7.22568 6.16464 7.32671 6.16464 7.56377Z" fill="black"/>
<path d="M22.9875 12.9266C23.0044 13.266 23.0044 13.7737 23.0044 14.3152C23.0044 14.8567 23.0044 15.3515 22.9875 15.6857C22.9707 16.1093 22.7505 16.244 22.3955 16.2945C22.0406 16.345 19.8903 16.3463 18.705 16.3463C17.5198 16.3463 15.7944 16.3463 14.999 16.2777C14.6441 16.244 14.4744 16.0924 14.4575 15.6689C14.407 14.2984 14.407 12.1714 14.407 10.1869C14.407 8.20238 14.407 6.31115 14.4575 4.94066C14.4744 4.51707 14.6441 4.36552 14.999 4.33184C15.3539 4.29816 16.2348 4.26318 17.0806 4.26318C17.9265 4.26318 18.8411 4.29816 19.1792 4.33184C19.5172 4.36552 19.6869 4.51707 19.6869 4.94066V12.183C19.6869 12.4188 19.7375 12.4538 19.8903 12.4538H22.5639C22.8683 12.4538 22.9707 12.5716 22.9875 12.9266Z" fill="black"/>
<path d="M34.9023 13.2841C34.9191 13.6235 34.9191 13.9616 34.9191 14.3333C34.9191 14.7051 34.9191 15.095 34.9023 15.4331C34.8854 15.8567 34.6652 16.0095 34.309 16.0432C33.8025 16.0937 30.5356 16.1106 29.6392 16.1106C28.7078 16.1106 25.7117 16.1106 24.9163 16.0432C24.5614 16.0095 24.3917 15.8567 24.3748 15.4331C24.3243 14.0626 24.3243 12.1675 24.3243 10.1869C24.3243 8.20627 24.3243 6.31115 24.3748 4.94066C24.3917 4.51707 24.5614 4.36552 24.9163 4.33184C25.7117 4.26318 28.7078 4.26318 29.6392 4.26318C30.5356 4.26318 33.8025 4.28132 34.309 4.33184C34.6652 4.36552 34.8854 4.51707 34.9023 4.94066C34.9191 5.27875 34.9191 5.66865 34.9191 6.04042C34.9191 6.41219 34.9191 6.75157 34.9023 7.08966C34.8854 7.42775 34.7831 7.56377 34.4787 7.56377H29.5563C29.4047 7.56377 29.3529 7.63113 29.3529 7.86818V8.51586C29.3529 8.75291 29.4047 8.78659 29.5563 8.78659H34.1432C34.4307 8.78659 34.5486 8.83711 34.5655 9.12468C34.5836 9.46277 34.5836 9.85267 34.5836 10.1908C34.5836 10.5289 34.5836 10.9188 34.5655 11.2568C34.5486 11.5444 34.4359 11.5962 34.1432 11.5962H29.5563C29.4047 11.5962 29.3529 11.6636 29.3529 11.9006V12.5483C29.3529 12.7854 29.4047 12.8191 29.5563 12.8191H34.4787C34.7831 12.8113 34.8854 12.9292 34.9023 13.2841Z" fill="black"/>
<path d="M45.8688 4.41607C47.2056 4.6026 47.6966 4.95753 48.0515 5.98993C48.2885 6.75161 48.4582 8.45112 48.4582 10.1869C48.4582 11.9227 48.2885 13.6235 48.0515 14.3839C47.6966 15.4202 47.2056 15.7725 45.8688 15.9577C45.0398 16.0769 43.4659 16.1106 42.1291 16.1106C38.3881 16.1106 37.5422 16.0769 37.2067 16.0432C36.8712 16.0096 36.6886 15.8567 36.6653 15.4331C36.6134 14.0626 36.6134 12.1675 36.6134 10.1869C36.6134 8.2063 36.6134 6.31118 36.6653 4.94069C36.6821 4.51711 36.8505 4.36555 37.2067 4.33187C37.5629 4.29819 38.3907 4.26322 42.1291 4.26322C43.4659 4.26192 45.0398 4.29819 45.8688 4.41607ZM41.7897 7.54696V12.8269C41.7897 13.0859 41.8584 13.1494 42.2975 13.1494C42.5014 13.1524 42.7053 13.1412 42.9076 13.1157C43.1667 13.0808 43.212 12.946 43.2457 12.5911C43.2794 12.117 43.2962 11.1351 43.2962 10.1869C43.2962 9.2387 43.2794 8.25812 43.2457 7.78401C43.212 7.42908 43.1615 7.29307 42.9076 7.25939C42.7053 7.23395 42.5014 7.22269 42.2975 7.22571C41.8584 7.22571 41.7897 7.29307 41.7897 7.54696Z" fill="black"/>
<path d="M61.8963 10.2371C61.8963 12.2164 61.7435 14.0105 61.5751 14.8227C61.338 15.9225 60.9818 16.1595 59.6787 16.2942C58.7149 16.3966 57.0879 16.4639 55.9895 16.4639C54.891 16.4639 53.2692 16.3966 52.3003 16.2942C50.9972 16.1647 50.6591 15.9225 50.4052 14.8227C50.2186 14.0105 50.049 12.2851 50.049 10.3045C50.049 8.32386 50.2186 6.59843 50.4052 5.78624C50.6642 4.63596 51.0645 4.44943 52.3003 4.31471C53.1967 4.21238 54.9571 4.14502 55.9895 4.14502C57.0219 4.14502 58.7823 4.21238 59.6787 4.31471C60.9818 4.44425 61.338 4.70332 61.5751 5.78624C61.7279 6.57979 61.824 7.38322 61.8627 8.19044C61.8627 8.51169 61.829 8.61273 61.5582 8.62957C61.1178 8.66324 59.9157 8.66325 59.3069 8.66325C58.6981 8.66325 57.4934 8.66324 57.0556 8.62957C56.7848 8.61273 56.7512 8.56221 56.7343 8.35883C56.7175 8.15546 56.7175 7.76685 56.6838 7.5298C56.667 7.36011 56.6164 7.29275 56.4131 7.25907C56.2729 7.23742 56.1313 7.22616 55.9895 7.22539C55.8477 7.22622 55.7061 7.23748 55.5659 7.25907C55.3975 7.29275 55.3068 7.34327 55.2952 7.5298C55.2446 8.20728 55.2446 9.30574 55.2446 10.3045C55.2446 11.2009 55.2446 12.4872 55.2952 13.2488C55.312 13.4509 55.3975 13.5079 55.5659 13.5196C55.7117 13.5418 55.8589 13.553 56.0063 13.5532C56.1796 13.5524 56.3526 13.5412 56.5245 13.5196C56.711 13.4859 56.7835 13.4172 56.7952 13.2488C56.812 12.9898 56.8289 12.6724 56.8289 12.368C56.1527 12.3511 55.9998 12.3006 55.983 12.0299C55.9662 11.7255 55.9662 11.2358 55.9662 11.0661C55.9662 10.8965 55.9662 10.4405 55.983 10.2371C55.9998 10.0001 56.084 9.91586 56.3211 9.89773C56.6605 9.88089 58.5232 9.86405 58.9442 9.86405C59.3652 9.86405 61.2124 9.86405 61.5518 9.89773C61.794 9.91586 61.8963 10.0169 61.8963 10.2371Z" fill="black"/>
<path d="M74.1997 13.7543C74.2165 14.0924 74.2165 14.4318 74.2165 14.8036C74.2165 15.1753 74.2165 15.5652 74.1997 15.9033C74.1828 16.3269 73.9626 16.4798 73.6077 16.5134C73.0999 16.564 69.8343 16.5808 68.9366 16.5808C68.0052 16.5808 65.0104 16.5808 64.215 16.5134C63.8601 16.4798 63.6969 16.3269 63.6736 15.9033C63.623 14.5328 63.623 12.4058 63.623 10.4226C63.623 8.43943 63.623 6.31115 63.6736 4.94066C63.6904 4.51707 63.8601 4.36552 64.215 4.33184C65.0104 4.26318 68.0052 4.26318 68.9366 4.26318C69.8343 4.26318 73.0999 4.28132 73.6077 4.33184C73.9626 4.36552 74.1828 4.51707 74.1997 4.94066C74.2165 5.27875 74.2165 5.66865 74.2165 6.04042C74.2165 6.41219 74.2165 6.75157 74.1997 7.08966C74.1828 7.42775 74.0818 7.56377 73.7774 7.56377H68.855C68.7022 7.56377 68.6516 7.63113 68.6516 7.86818V8.74643C68.6516 8.98348 68.7022 9.01716 68.855 9.01716H73.4406C73.7282 9.01716 73.8473 9.06898 73.8642 9.35655C73.881 9.69464 73.881 10.0832 73.881 10.4226C73.881 10.762 73.881 11.1506 73.8642 11.4887C73.8473 11.7763 73.7346 11.8268 73.4406 11.8268H68.855C68.7022 11.8268 68.6516 11.8942 68.6516 12.1312V13.0095C68.6516 13.2465 68.7022 13.2802 68.855 13.2802H73.7774C74.0818 13.2802 74.1828 13.3994 74.1997 13.7543Z" fill="black"/>
<path d="M114.314 7.02731C114.161 7.0036 114.007 6.99105 113.852 6.98975C113.697 6.99073 113.543 7.00329 113.39 7.02731C113.206 7.06358 113.032 7.13742 113.001 7.41592C112.948 8.12189 112.948 9.21129 112.948 10.1725C112.948 11.1336 112.948 12.223 113.001 12.9277C113.026 13.2295 113.197 13.2878 113.39 13.3254C113.543 13.3484 113.697 13.3609 113.852 13.3629C114.006 13.3611 114.159 13.3486 114.311 13.3254C114.498 13.2878 114.672 13.2153 114.699 12.9368C114.752 12.2295 114.752 11.1401 114.752 10.1789C114.752 9.21777 114.752 8.12837 114.699 7.42369C114.673 7.12317 114.506 7.06488 114.314 7.02731Z" fill="black"/>
<path d="M87.3943 6.98975H86.2919C85.9875 6.98975 85.9875 7.34986 85.9875 7.46903V9.153C85.9875 9.28254 85.9875 9.63229 86.2919 9.63229H87.3943C87.744 9.63229 87.8295 9.49109 87.8891 9.17632C87.9448 8.89228 87.9686 8.60293 87.9603 8.31361C87.9689 8.02158 87.9441 7.72953 87.8865 7.44312C87.8295 7.12965 87.744 6.98975 87.3943 6.98975Z" fill="black"/>
<path d="M128.611 6.98975H127.51C127.206 6.98975 127.206 7.34986 127.206 7.46903V9.153C127.206 9.28254 127.206 9.63229 127.51 9.63229H128.611C128.961 9.63229 129.047 9.49109 129.106 9.17632C129.162 8.89235 129.187 8.60298 129.179 8.31361C129.187 8.0216 129.162 7.72963 129.105 7.44312C129.047 7.12965 128.961 6.98975 128.611 6.98975Z" fill="black"/>
<path d="M160.063 3.57C159.674 1.79406 159.043 1.50648 157.137 1.29793C155.752 1.14119 139.895 0.779785 119.159 0.779785C98.4606 0.779785 82.5677 1.14637 81.1817 1.29793C79.2749 1.51037 78.648 1.79406 78.2568 3.57C77.9692 4.82391 77.7076 7.30582 77.7076 10.3629C77.7076 13.4199 77.9666 15.9018 78.2568 17.1558C78.6454 18.9317 79.2749 19.2193 81.1817 19.4278C82.5664 19.5846 98.4606 19.946 119.159 19.946C139.858 19.946 155.752 19.582 157.137 19.4278C159.043 19.2193 159.67 18.9317 160.063 17.1558C160.349 15.9018 160.611 13.4199 160.611 10.3629C160.611 7.30582 160.349 4.82391 160.063 3.57ZM90.6184 12.293C89.6819 12.3746 88.1572 12.4316 86.9046 12.4316H86.31C86.269 12.4273 86.2276 12.4322 86.1887 12.446C86.1498 12.4598 86.1145 12.4821 86.0853 12.5113C86.0562 12.5404 86.0339 12.5758 86.0201 12.6146C86.0063 12.6535 86.0014 12.695 86.0056 12.736V15.6039C86.0056 15.9925 85.8618 16.078 85.5808 16.1052C85.244 16.1389 84.3994 16.1739 83.4939 16.1739C82.6442 16.1739 81.7841 16.1389 81.4434 16.1052C81.1623 16.078 81.0172 15.9925 81.0004 15.5987C80.9485 14.1855 80.9485 12.2412 80.9485 10.1828C80.9485 8.12449 80.9485 6.19829 81.0004 4.78505C81.0172 4.3796 81.1726 4.29281 81.4369 4.27986C82.2763 4.22545 84.8748 4.19307 86.9046 4.19307C88.0277 4.19307 89.5925 4.22416 90.6171 4.31483C92.4915 4.47287 92.9306 4.86147 92.9306 8.31232C92.9306 11.4898 92.5628 12.122 90.6184 12.293ZM100.3 8.86156H105.038C105.312 8.86156 105.335 8.89523 105.347 9.08954C105.364 9.4341 105.364 9.83178 105.364 10.1828C105.364 10.5339 105.364 10.9315 105.347 11.2787C105.335 11.4704 105.312 11.5054 105.038 11.5054H100.3C99.9606 11.5054 99.9606 11.8046 99.9606 11.9497V12.6142C99.9606 12.8668 100.018 13.0236 100.3 13.0236H105.388C105.599 13.0236 105.68 13.0546 105.696 13.3901C105.713 13.7256 105.713 14.0909 105.713 14.4679C105.713 14.8448 105.713 15.2451 105.696 15.5974C105.68 15.9498 105.544 16.0715 105.202 16.1052C104.683 16.157 101.26 16.1739 100.387 16.1739C97.6989 16.1739 96.0615 16.1506 95.5188 16.1052C95.239 16.078 95.0939 15.9925 95.0784 15.5987C95.0253 14.1855 95.0252 12.2412 95.0252 10.1828C95.0252 8.12449 95.0253 6.18145 95.0784 4.76691C95.0939 4.3783 95.239 4.28892 95.5201 4.26172C96.0615 4.21638 97.6989 4.19307 100.387 4.19307C101.26 4.19307 104.681 4.20991 105.2 4.26172C105.544 4.29411 105.683 4.4366 105.696 4.76821C105.709 5.09982 105.713 5.51434 105.713 5.89906C105.713 6.28378 105.713 6.62964 105.696 6.9768C105.68 7.32396 105.599 7.34339 105.388 7.34339H100.3C99.9606 7.34339 99.9606 7.64391 99.9606 7.7877V8.45222C99.9606 8.70093 100.018 8.85767 100.3 8.85767V8.86156ZM119.496 14.7011C119.254 15.8034 118.905 15.9848 117.65 16.126C116.743 16.2296 114.921 16.3008 113.852 16.3008C112.783 16.3008 110.961 16.2296 110.055 16.126C108.799 15.9886 108.452 15.8073 108.208 14.7011C108.04 13.9666 107.844 12.3448 107.844 10.1815C107.844 8.01827 108.04 6.39648 108.208 5.6646C108.452 4.56224 108.799 4.38089 110.054 4.2397C110.961 4.13736 112.783 4.06612 113.852 4.06612C114.921 4.06612 116.745 4.13736 117.65 4.2397C118.905 4.3783 119.254 4.55965 119.496 5.6646C119.664 6.39777 119.86 8.02086 119.86 10.1828C119.86 12.3448 119.664 13.964 119.496 14.6972V14.7011ZM131.836 12.293C130.899 12.3746 129.374 12.4316 128.122 12.4316H127.527C127.486 12.4273 127.445 12.4322 127.406 12.446C127.367 12.4598 127.332 12.4821 127.302 12.5113C127.273 12.5404 127.251 12.5758 127.237 12.6146C127.223 12.6535 127.219 12.695 127.223 12.736V15.6039C127.223 15.9925 127.08 16.078 126.798 16.1052C126.462 16.1389 125.618 16.1739 124.712 16.1739C123.861 16.1739 123.001 16.1389 122.662 16.1052C122.379 16.078 122.234 15.9925 122.219 15.5987C122.166 14.1855 122.166 12.2412 122.166 10.1828C122.166 8.12449 122.166 6.19829 122.219 4.78505C122.234 4.3796 122.391 4.29281 122.655 4.27986C123.493 4.22545 126.093 4.19307 128.122 4.19307C129.245 4.19307 130.811 4.22416 131.836 4.31483C133.71 4.47287 134.148 4.86147 134.148 8.31232C134.148 11.4898 133.78 12.122 131.836 12.293ZM144.85 15.6156C144.837 15.9433 144.71 16.0715 144.349 16.1234C143.987 16.1752 141.75 16.1739 140.556 16.1739C139.362 16.1739 137.553 16.1739 136.737 16.1052C136.457 16.078 136.311 15.9925 136.296 15.5987C136.244 14.1855 136.244 12.2412 136.244 10.1828C136.244 8.12449 136.244 6.18145 136.296 4.76691C136.311 4.3783 136.457 4.28892 136.739 4.26172C137.071 4.22804 137.985 4.19307 138.877 4.19307C139.77 4.19307 140.698 4.22804 141.033 4.26172C141.309 4.28763 141.441 4.36924 141.441 4.76303V12.0015C141.441 12.2541 141.496 12.4108 141.78 12.4108H144.542C144.753 12.4108 144.835 12.4432 144.85 12.7774C144.866 13.1116 144.868 13.6492 144.868 14.2023C144.868 14.7555 144.868 15.2645 144.85 15.6117V15.6156ZM152.026 8.86156H156.766C157.038 8.86156 157.063 8.89523 157.073 9.08954C157.091 9.4341 157.091 9.83178 157.091 10.1828C157.091 10.5339 157.091 10.9315 157.073 11.2787C157.063 11.4704 157.038 11.5054 156.766 11.5054H152.026C151.687 11.5054 151.687 11.8046 151.687 11.9497V12.6142C151.687 12.8668 151.744 13.0236 152.026 13.0236H157.116C157.326 13.0236 157.407 13.0546 157.423 13.3901C157.438 13.7256 157.441 14.0909 157.441 14.4679C157.441 14.8448 157.441 15.2451 157.423 15.5974C157.405 15.9498 157.271 16.0715 156.928 16.1052C156.41 16.157 152.988 16.1739 152.114 16.1739C149.427 16.1739 147.788 16.1506 147.247 16.1052C146.967 16.078 146.822 15.9925 146.806 15.5987C146.753 14.1855 146.753 12.2412 146.753 10.1828C146.753 8.12449 146.753 6.18145 146.806 4.76691C146.822 4.3783 146.967 4.28892 147.248 4.26172C147.788 4.21638 149.427 4.19307 152.114 4.19307C152.988 4.19307 156.409 4.20991 156.928 4.26172C157.271 4.29411 157.41 4.4366 157.423 4.76821C157.436 5.09982 157.441 5.51434 157.441 5.89906C157.441 6.28378 157.441 6.62964 157.423 6.9768C157.405 7.32396 157.326 7.34339 157.116 7.34339H152.026C151.687 7.34339 151.687 7.64391 151.687 7.7877V8.45222C151.683 8.70093 151.744 8.85767 152.026 8.85767V8.86156Z" fill="black"/>
<path d="M171.984 4.33037C172.286 4.29669 173.16 4.26302 173.747 4.26302C174.47 4.26302 175.276 4.29669 175.561 4.33037C175.845 4.36405 175.997 4.51431 176.014 4.93401C176.064 6.29544 176.064 8.45481 176.064 10.4536C176.064 12.4186 176.064 14.4472 176.014 15.8073C175.997 16.2283 175.884 16.3785 175.577 16.4122C175.27 16.4459 174.452 16.4796 173.746 16.4796C173.309 16.4865 172.871 16.4696 172.436 16.4291C171.614 16.3449 171.445 16.2451 171.059 15.6065L168.825 11.9795V15.7904C168.825 16.2101 168.707 16.3604 168.388 16.3941C168.069 16.4278 167.212 16.4614 166.624 16.4614C165.902 16.4614 165.095 16.4278 164.81 16.3941C164.525 16.3604 164.374 16.2101 164.357 15.7904C164.306 14.429 164.306 12.4342 164.306 10.4354C164.306 8.47035 164.306 6.29026 164.357 4.93272C164.374 4.51302 164.541 4.36276 164.893 4.32908C165.246 4.2954 166.137 4.26172 166.674 4.26172C167.111 4.26172 167.648 4.27856 167.851 4.2954C168.673 4.3796 168.841 4.49618 169.227 5.13479L171.546 8.89782V4.93401C171.547 4.52079 171.664 4.36405 171.984 4.33037Z" fill="black"/>
<path d="M187.421 4.46007C188.646 4.58961 189.05 4.78003 189.302 5.92254C189.487 6.72825 189.655 8.47181 189.655 10.4369C189.655 12.4019 189.487 14.1455 189.302 14.9512C189.05 16.0937 188.646 16.279 187.421 16.4124C186.531 16.5134 184.784 16.5808 183.759 16.5808C182.734 16.5808 180.987 16.5134 180.097 16.4124C178.87 16.2828 178.467 16.0937 178.216 14.9512C178.031 14.1455 177.862 12.4019 177.862 10.4369C177.862 8.47181 178.031 6.72825 178.216 5.92254C178.467 4.78003 178.864 4.59479 180.097 4.46007C180.987 4.36033 182.734 4.29297 183.759 4.29297C184.784 4.29297 186.528 4.36033 187.421 4.46007ZM183.339 7.38371C183.171 7.41739 183.08 7.46791 183.07 7.65185C183.019 8.32414 183.019 9.49644 183.019 10.4369C183.019 11.3773 183.019 12.5496 183.07 13.2206C183.087 13.4227 183.171 13.4564 183.339 13.49C183.478 13.511 183.618 13.5223 183.759 13.5237C183.899 13.5223 184.04 13.511 184.179 13.49C184.347 13.4564 184.431 13.4058 184.448 13.2206C184.499 12.5496 184.499 11.3773 184.499 10.4369C184.499 9.49644 184.499 8.32414 184.448 7.65185C184.431 7.45107 184.347 7.41739 184.179 7.38371C184.04 7.36275 183.899 7.3515 183.759 7.35003C183.618 7.35078 183.478 7.36204 183.339 7.38371Z" fill="black"/>
<path d="M202.118 6.52234C202.118 6.85914 202.118 7.48091 202.101 7.81771C202.086 8.2374 201.85 8.42264 201.43 8.42264C200.912 8.42264 199.717 8.38896 199.027 8.38896V10.5911C199.027 12.5898 199.027 14.437 198.978 15.7984C198.961 16.2181 198.793 16.3684 198.441 16.4021C198.088 16.4358 197.248 16.4694 196.408 16.4694C195.569 16.4694 194.711 16.4358 194.376 16.4021C194.04 16.3684 193.858 16.2181 193.838 15.7984C193.788 14.437 193.788 12.5898 193.788 10.5911V8.38896C193.099 8.38896 191.905 8.42264 191.385 8.42264C190.965 8.42264 190.737 8.2374 190.714 7.81771C190.697 7.48221 190.697 6.86043 190.697 6.52234C190.697 6.18425 190.697 5.56507 190.714 5.22698C190.731 4.80728 190.965 4.65572 191.301 4.62204C191.772 4.57153 194.539 4.55469 196.408 4.55469C198.277 4.55469 201.044 4.58837 201.514 4.62204C201.85 4.65572 202.086 4.80728 202.101 5.22698C202.118 5.56507 202.118 6.18685 202.118 6.52234Z" fill="black"/>
<path d="M217.639 13.4392C217.639 15.8745 217.287 16.1945 215.322 16.3447C214.044 16.4458 212.87 16.4626 211.778 16.4626C209.695 16.4626 207.258 16.4458 206.486 16.3784C206.134 16.3447 205.968 16.1945 205.948 15.7748C205.898 14.4133 205.898 12.583 205.898 10.5842C205.898 8.61788 205.898 6.75385 205.948 5.39372C205.965 4.97402 206.134 4.82247 206.486 4.78879C207.263 4.72143 209.695 4.70459 211.778 4.70459C212.87 4.70459 214.044 4.72143 215.322 4.82246C217.287 4.97402 217.639 5.29268 217.639 7.72797C217.639 9.97931 217.371 10.399 215.524 10.5337V10.6348C217.358 10.8019 217.639 11.1723 217.639 13.4392ZM210.987 7.86268V9.31349C210.987 9.56608 211.038 9.64899 211.156 9.64899H212.147C212.432 9.64899 212.516 9.61531 212.566 9.33033C212.611 9.08673 212.634 8.83961 212.634 8.59197C212.64 8.34439 212.623 8.09676 212.583 7.85232C212.533 7.56604 212.454 7.53366 212.164 7.53366H211.156C211.038 7.52718 210.987 7.62952 210.987 7.86268ZM210.987 11.8602V13.3045C210.987 13.5571 211.038 13.6413 211.156 13.6413H212.164C212.449 13.6413 212.533 13.6076 212.583 13.3213C212.623 13.0773 212.64 12.8301 212.634 12.583C212.634 12.3349 212.611 12.0874 212.566 11.8433C212.516 11.5584 212.437 11.5247 212.147 11.5247H211.156C211.038 11.5247 210.987 11.6257 210.987 11.8602Z" fill="black"/>
<path d="M228.757 4.60753C229.984 4.73707 230.387 4.92749 230.638 6.0687C230.823 6.87571 230.992 8.61797 230.992 10.5843C230.992 12.5507 230.823 14.1453 230.638 14.951C230.387 16.0935 229.984 16.2787 228.757 16.4122C227.867 16.5132 226.12 16.5806 225.095 16.5806C224.071 16.5806 222.323 16.5132 221.433 16.4122C220.206 16.2826 219.804 16.0935 219.552 14.951C219.367 14.1453 219.199 12.5494 219.199 10.5843C219.199 8.61927 219.367 6.87571 219.552 6.0687C219.804 4.92749 220.206 4.74225 221.433 4.60753C222.323 4.50649 224.071 4.44043 225.095 4.44043C226.12 4.44043 227.87 4.50649 228.757 4.60753ZM224.675 7.53116C224.507 7.56355 224.423 7.61407 224.406 7.7993C224.356 8.4716 224.356 9.64261 224.356 10.5843C224.356 11.5261 224.356 12.5494 224.406 13.2204C224.423 13.4225 224.507 13.4562 224.675 13.4898C224.814 13.5108 224.955 13.522 225.095 13.5235C225.236 13.522 225.376 13.5108 225.515 13.4898C225.683 13.4562 225.767 13.4056 225.784 13.2204C225.835 12.5494 225.835 11.5248 225.835 10.5843C225.835 9.6439 225.835 8.4716 225.784 7.7993C225.767 7.59723 225.683 7.56355 225.515 7.53116C225.376 7.51021 225.236 7.49896 225.095 7.49749C224.955 7.49837 224.816 7.50962 224.678 7.53116H224.675Z" fill="black"/>
<path d="M243.458 6.37554C243.458 6.71104 243.458 7.33281 243.441 7.6709C243.425 8.0906 243.189 8.27583 242.769 8.27583C242.251 8.27583 241.055 8.24216 240.368 8.24216V10.4443C240.368 12.443 240.368 14.4379 240.317 15.7993C240.3 16.219 240.132 16.3693 239.779 16.4029C239.427 16.4366 238.586 16.4703 237.747 16.4703C236.908 16.4703 236.05 16.4366 235.715 16.4029C235.379 16.3693 235.196 16.219 235.177 15.7993C235.127 14.4379 235.127 12.443 235.127 10.4443V8.24216C234.437 8.24216 233.244 8.27583 232.724 8.27583C232.304 8.27583 232.069 8.0906 232.053 7.6709C232.036 7.3354 232.036 6.71363 232.036 6.37554C232.036 6.03745 232.036 5.41827 232.053 5.08018C232.069 4.66048 232.304 4.50892 232.639 4.47524C233.111 4.42602 235.878 4.40918 237.747 4.40918C239.616 4.40918 242.383 4.44156 242.853 4.47524C243.189 4.50892 243.425 4.66048 243.441 5.08018C243.458 5.41827 243.458 6.03875 243.458 6.37554Z" fill="black"/>
<path d="M250.479 13.7089C251.05 13.7089 251.101 13.591 251.118 13.2542C251.135 12.9174 251.135 12.0884 251.135 11.5961C251.135 11.3604 251.084 11.3267 250.933 11.3267C250.462 11.3267 245.524 11.3099 245.255 11.293C244.953 11.2762 244.818 11.1259 244.802 10.7891C244.768 10.1674 244.768 8.57923 244.768 7.79036C244.768 5.00144 245.221 4.46387 247.1 4.27993C247.789 4.21257 249.62 4.15039 250.477 4.15039C251.333 4.15039 253.08 4.21775 253.768 4.27993C255.65 4.46387 256.188 5.08564 256.188 7.79036C256.188 8.21006 256.12 8.27741 255.768 8.3085C255.416 8.33959 254.29 8.34218 253.719 8.34218C253.148 8.34218 251.905 8.34218 251.517 8.3085C251.198 8.27482 251.181 8.25798 251.164 7.973L251.131 7.45486C251.114 7.08439 250.979 7.01703 250.475 7.01703C249.887 7.01703 249.853 7.1349 249.837 7.4717C249.82 7.80849 249.82 8.63753 249.82 8.96266C249.82 9.19712 249.87 9.2308 250.022 9.2308C250.492 9.2308 255.43 9.24764 255.699 9.26448C256.001 9.28132 256.136 9.43288 256.153 9.76838C256.187 10.3902 256.187 12.1467 256.187 12.9355C256.187 15.7245 255.767 16.262 253.885 16.446C253.197 16.5133 251.332 16.5755 250.475 16.5755C249.619 16.5755 247.872 16.5082 247.182 16.446C245.302 16.262 244.764 15.7245 244.764 12.7671C244.764 12.3474 244.831 12.2801 245.184 12.249C245.536 12.2179 246.662 12.2153 247.233 12.2153C247.804 12.2153 249.046 12.2153 249.435 12.249C249.754 12.2827 249.771 12.2995 249.787 12.5858L249.821 13.2736C249.841 13.6415 249.975 13.7089 250.479 13.7089Z" fill="black"/>
</svg>
