<svg width="56" height="34" viewBox="0 0 56 34" fill="none" xmlns="http://www.w3.org/2000/svg">
<g clip-path="url(#clip0_2393_912)">
<path d="M24.7275 15.5257C24.6241 15.5095 24.5197 15.5009 24.4151 15.5C24.3105 15.5007 24.2061 15.5093 24.1027 15.5257C23.9785 15.5505 23.8612 15.6009 23.8402 15.7913C23.8044 16.2739 23.8044 17.0185 23.8044 17.6755C23.8044 18.3324 23.8044 19.0771 23.8402 19.5587C23.8569 19.765 23.9724 19.8049 24.1027 19.8306C24.2062 19.8463 24.3105 19.8549 24.4151 19.8562C24.5188 19.855 24.6223 19.8464 24.7249 19.8306C24.8518 19.8049 24.969 19.7553 24.9874 19.5649C25.0233 19.0815 25.0233 18.3369 25.0233 17.6799C25.0233 17.0229 25.0233 16.2783 24.9874 15.7966C24.9699 15.5912 24.8544 15.5514 24.7275 15.5257Z" fill="black"/>
<path d="M6.54325 15.5H5.79863C5.593 15.5 5.593 15.7461 5.593 15.8276V16.9786C5.593 17.0672 5.593 17.3062 5.79863 17.3062H6.54325C6.7795 17.3062 6.83725 17.2097 6.8775 16.9946C6.9151 16.8004 6.93124 16.6027 6.92563 16.4049C6.93141 16.2053 6.91468 16.0057 6.87575 15.8099C6.83725 15.5956 6.7795 15.5 6.54325 15.5Z" fill="black"/>
<path d="M34.3875 15.5H33.6429C33.4372 15.5 33.4372 15.7461 33.4372 15.8276V16.9786C33.4372 17.0672 33.4372 17.3062 33.6429 17.3062H34.3875C34.6237 17.3062 34.6815 17.2097 34.7217 16.9946C34.7593 16.8004 34.7755 16.6027 34.7699 16.4049C34.7756 16.2053 34.7589 16.0057 34.72 15.8099C34.6789 15.5956 34.6211 15.5 34.3875 15.5Z" fill="black"/>
<path d="M55.629 13.163C55.3665 11.9491 54.9412 11.7526 53.6532 11.61C52.7179 11.5029 42.007 11.2559 28 11.2559C14.0184 11.2559 3.28213 11.5064 2.34675 11.61C1.05875 11.7552 0.63525 11.9491 0.371 13.163C0.175 14.0201 0 15.7166 0 17.8062C0 19.8958 0.175 21.5922 0.371 22.4493C0.6335 23.6632 1.05875 23.8598 2.34675 24.0023C3.28213 24.1095 14.0184 24.3565 28 24.3565C41.9816 24.3565 52.7179 24.1077 53.6532 24.0023C54.9412 23.8598 55.3647 23.6632 55.629 22.4493C55.825 21.5922 56 19.8958 56 17.8062C56 15.7166 55.825 14.0201 55.629 13.163ZM8.72113 19.1254C8.0885 19.1812 7.05862 19.2202 6.2125 19.2202H5.81088C5.78316 19.2173 5.75516 19.2206 5.7289 19.2301C5.70264 19.2395 5.67879 19.2547 5.65909 19.2747C5.63939 19.2946 5.62433 19.3187 5.61502 19.3453C5.6057 19.3719 5.60237 19.4002 5.60525 19.4283V21.3886C5.60525 21.6542 5.50812 21.7126 5.31825 21.7312C5.09075 21.7542 4.52025 21.7782 3.90862 21.7782C3.33462 21.7782 2.75362 21.7542 2.5235 21.7312C2.33362 21.7126 2.23475 21.6542 2.22425 21.385C2.18925 20.419 2.18925 19.09 2.18925 17.6831C2.18925 16.2762 2.18925 14.9596 2.22425 13.9936C2.23562 13.7164 2.34062 13.6571 2.51912 13.6483C3.08612 13.6111 4.84137 13.5889 6.2125 13.5889C6.97113 13.5889 8.02812 13.6102 8.72025 13.6722C9.98637 13.7802 10.283 14.0458 10.283 16.4046C10.283 18.5765 10.0345 19.0086 8.72113 19.1254ZM15.2609 16.78H18.4625C18.6471 16.78 18.6629 16.803 18.6707 16.9358C18.6821 17.1713 18.6821 17.4431 18.6821 17.6831C18.6821 17.923 18.6821 18.1949 18.6707 18.4322C18.6629 18.5632 18.6471 18.5871 18.4625 18.5871H15.2609C15.0316 18.5871 15.0316 18.7916 15.0316 18.8908V19.345C15.0316 19.5177 15.0701 19.6248 15.2609 19.6248H18.6979C18.8405 19.6248 18.8948 19.6461 18.9061 19.8754C18.9175 20.1047 18.9175 20.3544 18.9175 20.6121C18.9175 20.8697 18.9175 21.1433 18.9061 21.3841C18.8948 21.625 18.8029 21.7082 18.5719 21.7312C18.2219 21.7666 15.9092 21.7782 15.3195 21.7782C13.5039 21.7782 12.3979 21.7622 12.0312 21.7312C11.8422 21.7126 11.7443 21.6542 11.7338 21.385C11.6979 20.419 11.6979 19.09 11.6979 17.6831C11.6979 16.2762 11.6979 14.948 11.7338 13.9812C11.7443 13.7155 11.8423 13.6545 12.0321 13.6359C12.3979 13.6049 13.5039 13.5889 15.3195 13.5889C15.9092 13.5889 18.2201 13.6004 18.571 13.6359C18.8029 13.658 18.8965 13.7554 18.9061 13.9821C18.9158 14.2087 18.9175 14.4921 18.9175 14.755C18.9175 15.018 18.9175 15.2544 18.9061 15.4917C18.8948 15.729 18.8405 15.7423 18.6979 15.7423H15.2609C15.0316 15.7423 15.0316 15.9477 15.0316 16.046V16.5002C15.0316 16.6702 15.0701 16.7773 15.2609 16.7773V16.78ZM28.2275 20.7688C28.0639 21.5223 27.8285 21.6462 26.9806 21.7427C26.3681 21.8136 25.137 21.8623 24.4151 21.8623C23.6932 21.8623 22.4621 21.8136 21.8496 21.7427C21.0017 21.6489 20.7664 21.5249 20.6027 20.7688C20.489 20.2667 20.3569 19.1582 20.3569 17.6796C20.3569 16.2009 20.489 15.0924 20.6027 14.5921C20.7664 13.8386 21.0017 13.7147 21.8496 13.6181C22.4621 13.5482 23.6932 13.4995 24.4151 13.4995C25.137 13.4995 26.3681 13.5482 26.9806 13.6181C27.8285 13.7129 28.0639 13.8368 28.2275 14.5921C28.3412 15.0933 28.4734 16.2027 28.4734 17.6804C28.4734 19.1582 28.3412 20.2676 28.2275 20.7688ZM36.5627 19.1254C35.9301 19.1812 34.9002 19.2202 34.0541 19.2202H33.6525C33.6248 19.2173 33.5968 19.2206 33.5705 19.2301C33.5443 19.2395 33.5204 19.2547 33.5007 19.2747C33.481 19.2946 33.466 19.3187 33.4566 19.3453C33.4473 19.3719 33.444 19.4002 33.4469 19.4283V21.3886C33.4469 21.6542 33.3506 21.7126 33.1599 21.7312C32.9332 21.7542 32.3619 21.7782 31.7511 21.7782C31.1762 21.7782 30.5953 21.7542 30.366 21.7312C30.1753 21.7126 30.0772 21.6542 30.0667 21.385C30.0309 20.419 30.0309 19.09 30.0309 17.6831C30.0309 16.2762 30.0309 14.9596 30.0667 13.9936C30.0772 13.7164 30.1831 13.6571 30.3608 13.6483C30.9277 13.6111 32.683 13.5889 34.0541 13.5889C34.8127 13.5889 35.8697 13.6102 36.5627 13.6722C37.8289 13.7802 38.1246 14.0458 38.1246 16.4046C38.1246 18.5765 37.8761 19.0086 36.5627 19.1254ZM45.3539 21.3965C45.3451 21.6205 45.2594 21.7082 45.0153 21.7436C44.7711 21.779 43.26 21.7782 42.4532 21.7782C41.6465 21.7782 40.425 21.7781 39.8737 21.7312C39.6847 21.7126 39.5859 21.6542 39.5754 21.385C39.5404 20.419 39.5404 19.09 39.5404 17.6831C39.5404 16.2762 39.5404 14.948 39.5754 13.9812C39.5859 13.7155 39.6847 13.6545 39.8746 13.6359C40.0995 13.6128 40.7164 13.5889 41.3192 13.5889C41.9221 13.5889 42.5495 13.6128 42.7752 13.6359C42.9616 13.6536 43.0509 13.7093 43.0509 13.9785V18.9262C43.0509 19.0989 43.0885 19.206 43.2792 19.206H45.15C45.2926 19.206 45.3477 19.2281 45.3582 19.4566C45.3688 19.685 45.3696 20.0525 45.3696 20.4305C45.3696 20.8086 45.3652 21.1566 45.3539 21.3939V21.3965ZM50.2014 16.78H53.403C53.5868 16.78 53.6034 16.803 53.6104 16.9358C53.6226 17.1713 53.6226 17.4431 53.6226 17.6831C53.6226 17.923 53.6226 18.1949 53.6104 18.4322C53.6034 18.5632 53.5868 18.5871 53.403 18.5871H50.2014C49.9721 18.5871 49.9721 18.7916 49.9721 18.8908V19.345C49.9721 19.5177 50.0106 19.6248 50.2014 19.6248H53.6375C53.7792 19.6248 53.8344 19.6461 53.8449 19.8754C53.8554 20.1047 53.8571 20.3544 53.8571 20.6121C53.8571 20.8697 53.8571 21.1433 53.8449 21.3841C53.8326 21.625 53.7425 21.7082 53.5106 21.7312C53.1606 21.7666 50.848 21.7782 50.2591 21.7782C48.4435 21.7782 47.3366 21.7622 46.9709 21.7312C46.7819 21.7126 46.6839 21.6542 46.6725 21.385C46.6375 20.419 46.6375 19.09 46.6375 17.6831C46.6375 16.2762 46.6375 14.948 46.6725 13.9812C46.6839 13.7155 46.7819 13.6545 46.9717 13.6359C47.3366 13.6049 48.4435 13.5889 50.2591 13.5889C50.848 13.5889 53.1597 13.6004 53.5106 13.6359C53.7425 13.658 53.8361 13.7554 53.8449 13.9821C53.8536 14.2087 53.8571 14.4921 53.8571 14.755C53.8571 15.018 53.8571 15.2544 53.8449 15.4917C53.8326 15.729 53.7792 15.7423 53.6375 15.7423H50.2014C49.9721 15.7423 49.9721 15.9477 49.9721 16.046V16.5002C49.9721 16.6702 50.0106 16.7773 50.2014 16.7773V16.78Z" fill="black"/>
<path d="M5.27712 26.6384C5.4565 26.618 5.97712 26.5977 6.32712 26.5977C6.75587 26.5977 7.2345 26.618 7.40425 26.6384C7.574 26.6587 7.66675 26.7491 7.67375 27.0014C7.7035 27.8195 7.7035 29.1167 7.7035 30.3182C7.7035 31.4984 7.7035 32.7177 7.67375 33.5358C7.66412 33.7881 7.59412 33.8784 7.41125 33.8988C7.22837 33.9192 6.74275 33.9395 6.32362 33.9395C6.06397 33.9436 5.80428 33.9333 5.54575 33.9085C5.05662 33.8581 4.95687 33.7979 4.72762 33.4145L3.40112 31.2337V33.5252C3.40112 33.7775 3.33112 33.8687 3.13862 33.8891C2.94612 33.9094 2.43862 33.9289 2.08862 33.9289C1.659 33.9289 1.18037 33.9085 1.01062 33.8891C0.840872 33.8696 0.748122 33.7775 0.741997 33.5252C0.711372 32.7079 0.711372 31.5091 0.711372 30.3075C0.711372 29.1264 0.711372 27.8195 0.741997 27.0014C0.751622 26.7491 0.851372 26.6587 1.0605 26.6384C1.26962 26.618 1.799 26.5977 2.11837 26.5977C2.38087 26.5977 2.69675 26.6083 2.81837 26.618C3.30662 26.6685 3.40637 26.7393 3.6365 27.1227L5.01287 29.3841V27.0049C5.01812 26.7491 5.08812 26.6587 5.27712 26.6384Z" fill="black"/>
<path d="M14.4445 26.7181C15.1725 26.7987 15.4114 26.9094 15.561 27.5956C15.6712 28.0799 15.771 29.1273 15.771 30.3085C15.771 31.4896 15.6712 32.5371 15.561 33.0214C15.4114 33.7076 15.1725 33.8183 14.4445 33.8997C13.9151 33.9599 12.8782 34.0007 12.2692 34.0007C11.6602 34.0007 10.6234 33.9599 10.0949 33.8997C9.36687 33.8192 9.12712 33.7076 8.9775 33.0214C8.86812 32.5371 8.76837 31.4896 8.76837 30.3085C8.76837 29.1273 8.86812 28.0799 8.9775 27.5956C9.12712 26.9094 9.36687 26.7987 10.0949 26.7181C10.6199 26.657 11.6611 26.6172 12.2692 26.6172C12.8774 26.6172 13.9125 26.657 14.4445 26.7181ZM12.0199 28.4739C11.9201 28.4943 11.8702 28.5244 11.8606 28.6359C11.8309 29.0388 11.8309 29.7436 11.8309 30.3085C11.8309 30.8734 11.8309 31.5782 11.8606 31.9819C11.8702 32.1032 11.9201 32.1236 12.0199 32.1431C12.1024 32.1559 12.1857 32.1627 12.2692 32.1634C12.3528 32.1628 12.4361 32.156 12.5186 32.1431C12.6184 32.1236 12.6682 32.0926 12.6787 31.9819C12.7085 31.5782 12.7085 30.8743 12.7085 30.3085C12.7085 29.7427 12.7085 29.0388 12.6787 28.6359C12.6682 28.5146 12.6184 28.4943 12.5186 28.4739C12.436 28.4614 12.3527 28.4546 12.2692 28.4535C12.1857 28.4542 12.1024 28.461 12.0199 28.4739Z" fill="black"/>
<path d="M23.1718 27.9565C23.1718 28.1584 23.1718 28.5321 23.1621 28.7339C23.1525 28.9863 23.0125 29.0969 22.7631 29.0969C22.4543 29.0969 21.7455 29.0766 21.3369 29.0766V30.3967C21.3369 31.5982 21.3369 32.7086 21.3071 33.5258C21.2966 33.7781 21.1969 33.8693 20.9877 33.8897C20.7786 33.9101 20.2799 33.9296 19.7803 33.9296C19.2806 33.9296 18.7731 33.9092 18.5736 33.8897C18.3741 33.8702 18.2648 33.7781 18.2543 33.5258C18.2245 32.7086 18.2245 31.5982 18.2245 30.3967V29.0766C17.8159 29.0766 17.1071 29.0969 16.7983 29.0969C16.5489 29.0969 16.4089 28.9863 16.3993 28.7339C16.3896 28.5321 16.3896 28.1584 16.3896 27.9565C16.3896 27.7547 16.3896 27.381 16.3993 27.1791C16.4089 26.9268 16.5489 26.8365 16.7493 26.8161C17.0284 26.786 18.6743 26.7754 19.7811 26.7754C20.888 26.7754 22.5348 26.7958 22.8139 26.8161C23.0134 26.8365 23.1534 26.9268 23.1639 27.1791C23.1718 27.381 23.1718 27.7547 23.1718 27.9565Z" fill="black"/>
<path d="M32.389 32.112C32.389 33.5756 32.1799 33.7678 31.0126 33.8581C30.254 33.9192 29.5558 33.9289 28.9074 33.9289C27.671 33.9289 26.2246 33.9192 25.7653 33.8784C25.5561 33.8581 25.4564 33.7678 25.4468 33.5154C25.4161 32.6973 25.4161 31.5976 25.4161 30.3961C25.4161 29.2149 25.4161 28.094 25.4468 27.2777C25.4564 27.0253 25.5561 26.9341 25.7653 26.9137C26.2246 26.8739 27.671 26.8633 28.9074 26.8633C29.5558 26.8633 30.254 26.8739 31.0126 26.9341C32.1799 27.0227 32.389 27.2166 32.389 28.6802C32.389 30.0331 32.2289 30.2854 31.1325 30.3624V30.4227C32.2193 30.528 32.389 30.7494 32.389 32.112ZM28.4375 28.7607V29.6293C28.4375 29.7807 28.4673 29.8312 28.5373 29.8312H29.1253C29.295 29.8312 29.3449 29.8108 29.3746 29.6391C29.401 29.493 29.4144 29.3448 29.4149 29.1964C29.4184 29.0482 29.4085 28.9 29.3851 28.7536C29.3545 28.5819 29.3046 28.5615 29.1358 28.5615H28.5373C28.469 28.5589 28.4375 28.6199 28.4375 28.7607ZM28.4375 31.1664V32.0341C28.4375 32.1855 28.4673 32.236 28.5373 32.236H29.1375C29.3064 32.236 29.3563 32.2156 29.3869 32.0438C29.4102 31.8975 29.4202 31.7493 29.4166 31.6011C29.4162 31.4527 29.4027 31.3045 29.3764 31.1584C29.3466 30.9875 29.2968 30.9672 29.127 30.9672H28.539C28.469 30.9619 28.4375 31.0221 28.4375 31.1664Z" fill="black"/>
<path d="M38.9926 26.806C39.7206 26.8866 39.9551 26.9973 40.1091 27.6835C40.2194 28.1678 40.3191 29.2152 40.3191 30.3964C40.3191 31.5775 40.2194 32.5364 40.1091 33.0208C39.9595 33.707 39.7206 33.8176 38.9926 33.8991C38.4676 33.9593 37.4264 34 36.8174 34C36.2084 34 35.1715 33.9593 34.643 33.8991C33.915 33.8185 33.6753 33.707 33.5256 33.0208C33.4163 32.5364 33.3165 31.5775 33.3165 30.3964C33.3165 29.2152 33.4163 28.1678 33.5256 27.6835C33.6753 26.9973 33.915 26.8866 34.643 26.806C35.168 26.7449 36.2093 26.7051 36.8174 26.7051C37.4255 26.7051 38.4633 26.7449 38.9926 26.806ZM36.568 28.5618C36.4682 28.5822 36.4184 28.6123 36.4087 28.7238C36.379 29.1267 36.379 29.8315 36.379 30.3964C36.379 30.9613 36.379 31.5775 36.4087 31.9813C36.4184 32.1026 36.4682 32.1229 36.568 32.1424C36.6505 32.1553 36.7339 32.1621 36.8174 32.1628C36.9009 32.1622 36.9842 32.1554 37.0667 32.1424C37.1665 32.1229 37.2164 32.092 37.2269 31.9813C37.2566 31.5775 37.2566 30.9622 37.2566 30.3964C37.2566 29.8306 37.2566 29.1267 37.2269 28.7238C37.2164 28.6025 37.1665 28.5822 37.0667 28.5618C36.9842 28.5493 36.9009 28.5425 36.8174 28.5414C36.7339 28.5421 36.6505 28.5489 36.568 28.5618Z" fill="black"/>
<path d="M47.7207 27.8667C47.7207 28.0686 47.7207 28.4422 47.7102 28.6441C47.7006 28.8964 47.5606 29.0071 47.3112 29.0071C47.0024 29.0071 46.2936 28.9867 45.885 28.9867V30.3069C45.885 31.5084 45.885 32.7073 45.8552 33.5245C45.8447 33.7768 45.745 33.868 45.5359 33.8884C45.3267 33.9088 44.828 33.9283 44.3292 33.9283C43.8305 33.9283 43.3212 33.9079 43.1217 33.8884C42.9222 33.8689 42.8129 33.7768 42.8024 33.5245C42.7726 32.7073 42.7726 31.5084 42.7726 30.3069V28.9867C42.364 28.9867 41.6553 29.0071 41.3464 29.0071C41.097 29.0071 40.957 28.8964 40.9474 28.6441C40.9377 28.4422 40.9377 28.0686 40.9377 27.8667C40.9377 27.6648 40.9377 27.2912 40.9474 27.0893C40.957 26.837 41.097 26.7466 41.2974 26.7263C41.5765 26.6962 43.2224 26.6855 44.3301 26.6855C45.4379 26.6855 47.0829 26.7059 47.362 26.7263C47.5615 26.7466 47.7015 26.837 47.712 27.0893C47.7208 27.2912 47.7207 27.6648 47.7207 27.8667Z" fill="black"/>
<path d="M51.8875 32.2737C52.2261 32.2737 52.2559 32.2029 52.2664 32.001C52.2769 31.7991 52.276 31.2927 52.276 31.004C52.276 30.8623 52.2462 30.842 52.1561 30.842C51.877 30.842 48.9449 30.8322 48.7847 30.8225C48.6054 30.8119 48.5223 30.7216 48.5153 30.5197C48.496 30.146 48.496 29.1916 48.496 28.717C48.496 27.0418 48.7646 26.7186 49.882 26.6079C50.2915 26.5672 51.3782 26.5273 51.8875 26.5273C52.3967 26.5273 53.4336 26.5672 53.8423 26.6079C54.9596 26.7186 55.279 27.0922 55.279 28.717C55.279 28.9693 55.2387 29.0101 55.0296 29.0304C54.8205 29.0508 54.1546 29.0499 53.8125 29.0499C53.4704 29.0499 52.7354 29.0499 52.5052 29.0304C52.3162 29.0101 52.3057 29.0003 52.2961 28.8285L52.276 28.5151C52.2664 28.2929 52.1885 28.2495 51.8875 28.2495C51.5375 28.2495 51.5182 28.3203 51.5077 28.5222C51.4972 28.7241 51.4981 29.2305 51.4981 29.4182C51.4981 29.559 51.5279 29.5794 51.618 29.5794C51.8971 29.5794 54.8301 29.5891 54.9894 29.5997C55.1644 29.6095 55.2519 29.7007 55.2589 29.9026C55.279 30.2762 55.279 31.3307 55.279 31.8053C55.279 33.4814 55.0296 33.8037 53.9123 33.9153C53.5027 33.9551 52.3959 33.9958 51.8875 33.9958C51.3791 33.9958 50.3414 33.9551 49.9319 33.9153C48.8145 33.8037 48.496 33.4814 48.496 31.7017C48.496 31.4494 48.5354 31.4095 48.7454 31.3892C48.9554 31.3688 49.6204 31.3688 49.9616 31.3688C50.3029 31.3688 51.0396 31.3688 51.2689 31.3892C51.4579 31.4095 51.4684 31.4193 51.478 31.591L51.4981 32.0045C51.5104 32.233 51.5909 32.2737 51.8875 32.2737Z" fill="black"/>
<path d="M4.2 9.31766C3.948 9.34333 3.33025 9.36901 2.688 9.36901C2.07025 9.36901 1.45337 9.34333 1.2005 9.31766C0.937999 9.29198 0.809374 9.17776 0.797124 8.85901C0.759499 7.82573 0.759499 6.06906 0.759499 4.55234C0.759499 3.06042 0.759499 1.64552 0.797124 0.612239C0.809374 0.293489 0.935374 0.169531 1.2005 0.153594C1.77975 0.115521 3.60675 0.0898438 5.14412 0.0898438C5.98762 0.0898438 7.10937 0.115521 7.82775 0.178385C9.31525 0.305885 9.57775 0.738854 9.57775 3.1888C9.57775 5.53516 9.30125 6.05755 7.82775 6.18505C7.10937 6.2488 5.99025 6.28687 5.14412 6.28687H4.71537C4.62787 6.28687 4.58937 6.32495 4.58937 6.41437V8.8599C4.58937 9.17776 4.4625 9.29198 4.2 9.31766ZM4.578 2.57609V3.79974C4.578 3.99099 4.61562 4.05474 4.704 4.05474H5.49762C5.68662 4.05474 5.72425 4.00427 5.76012 3.79974C5.82779 3.39473 5.82779 2.9811 5.76012 2.57609C5.7225 2.37156 5.68487 2.32109 5.49762 2.32109H4.704C4.61475 2.32109 4.57712 2.39724 4.57712 2.57609H4.578Z" fill="black"/>
<path d="M17.101 6.61625C17.1141 6.87125 17.1141 7.25375 17.1141 7.66193C17.1141 8.0701 17.1141 8.43932 17.101 8.69432C17.0888 9.01307 16.926 9.1149 16.6635 9.15297C16.401 9.19104 14.7989 9.19193 13.9169 9.19193C13.0349 9.19193 11.7495 9.19193 11.158 9.14057C10.8955 9.1149 10.7669 9.00068 10.7546 8.68193C10.717 7.64864 10.717 6.04339 10.717 4.55234C10.717 3.0613 10.717 1.63047 10.7546 0.599842C10.7669 0.281092 10.8929 0.165988 11.158 0.14031C11.4091 0.115519 12.0776 0.0898438 12.7076 0.0898438C13.3376 0.0898438 14.0201 0.115519 14.2695 0.14031C14.5189 0.165102 14.6475 0.281092 14.6475 0.599842V6.0549C14.6475 6.23198 14.6851 6.25943 14.7989 6.25943H16.7895C17.0126 6.25943 17.0888 6.34797 17.101 6.61625Z" fill="black"/>
<path d="M25.9718 6.88542C25.984 7.14042 25.984 7.39542 25.984 7.67609C25.984 7.95677 25.984 8.24984 25.9718 8.50484C25.9586 8.82359 25.7968 8.93781 25.5343 8.96349C25.1563 9.00156 22.7238 9.01484 22.0561 9.01484C21.3631 9.01484 19.1336 9.01484 18.5413 8.96349C18.2788 8.93781 18.1501 8.82359 18.1379 8.50484C18.1003 7.47156 18.1003 6.04339 18.1003 4.55234C18.1003 3.0613 18.1003 1.63047 18.1379 0.599842C18.1501 0.281092 18.2761 0.165988 18.5413 0.14031C19.1336 0.0898417 21.3631 0.0898438 22.0561 0.0898438C22.7238 0.0898438 25.1563 0.102238 25.5343 0.14031C25.7968 0.165988 25.9621 0.281092 25.9718 0.599842C25.984 0.854842 25.984 1.14792 25.984 1.42859C25.984 1.70927 25.984 1.96427 25.9718 2.21927C25.9595 2.47427 25.8843 2.57344 25.6568 2.57344H21.9896C21.8768 2.57344 21.8382 2.6239 21.8382 2.80276V3.28708C21.8382 3.46417 21.8768 3.49161 21.9896 3.49161H25.4021C25.6156 3.49161 25.704 3.52969 25.7171 3.74661C25.7294 4.00161 25.7294 4.29469 25.7294 4.54969C25.7294 4.80469 25.7294 5.09776 25.7171 5.35276C25.704 5.56969 25.6156 5.60776 25.4021 5.60776H21.9896C21.8768 5.60776 21.8382 5.65912 21.8382 5.83708V6.32141C21.8382 6.49849 21.8768 6.52594 21.9896 6.52594H25.6568C25.8834 6.52859 25.9586 6.61714 25.9718 6.88542Z" fill="black"/>
<path d="M34.1364 0.204082C35.1313 0.344863 35.497 0.612261 35.7613 1.39054C35.9363 1.96429 36.064 3.23929 36.064 4.55236C36.064 5.86544 35.938 7.14044 35.7613 7.71419C35.4988 8.49158 35.1313 8.75986 34.1364 8.89976C33.5186 8.9883 32.347 9.01486 31.3513 9.01486C28.567 9.01486 27.9388 8.98919 27.685 8.96351C27.4313 8.93783 27.2948 8.82361 27.2816 8.50486C27.244 7.47158 27.244 6.04341 27.244 4.55236C27.244 3.06132 27.244 1.63049 27.2816 0.599863C27.2948 0.281113 27.4208 0.166009 27.685 0.140332C27.9493 0.114655 28.567 0.089865 31.3513 0.089865C32.347 0.0889796 33.5186 0.11554 34.1364 0.204082ZM31.0993 2.56283V6.54101C31.0993 6.73226 31.15 6.78361 31.4773 6.78361C31.629 6.78589 31.7808 6.77731 31.9314 6.75794C32.1204 6.73226 32.158 6.63044 32.1834 6.36216C32.2079 6.00799 32.221 5.26601 32.221 4.55236C32.221 3.83872 32.2079 3.09851 32.1834 2.74169C32.158 2.47606 32.1204 2.37158 31.9314 2.34679C31.7808 2.32741 31.629 2.31883 31.4773 2.32111C31.15 2.32111 31.0993 2.37158 31.0993 2.56283Z" fill="black"/>
<path d="M46.0679 4.58893C46.0679 6.08086 45.955 7.43112 45.829 8.04206C45.654 8.87081 45.3915 9.04878 44.4176 9.1506C43.6993 9.22763 42.4926 9.2781 41.671 9.2781C40.8494 9.2781 39.6419 9.22763 38.9244 9.1506C37.954 9.04878 37.6994 8.87081 37.513 8.04206C37.3739 7.42935 37.2505 6.12956 37.2505 4.63852C37.2505 3.14747 37.3765 1.8468 37.513 1.23497C37.702 0.368151 38.0039 0.22737 38.9244 0.125547C39.592 0.0494013 40.9019 -0.00195312 41.671 -0.00195312C42.4401 -0.00195312 43.75 0.0494013 44.4176 0.125547C45.388 0.22737 45.6523 0.41862 45.829 1.23497C45.9433 1.83255 46.0149 2.43767 46.0434 3.04565C46.0434 3.28737 46.018 3.3644 45.8159 3.3768C45.4886 3.40247 44.5909 3.40247 44.1403 3.40247C43.6896 3.40247 42.7919 3.40247 42.4646 3.3768C42.2634 3.3644 42.238 3.32544 42.2249 3.17315C42.2118 3.02086 42.2126 2.73044 42.1873 2.54805C42.175 2.42055 42.1374 2.37096 41.986 2.3444C41.7774 2.31017 41.5646 2.31017 41.356 2.3444C41.23 2.36919 41.167 2.40815 41.1539 2.54805C41.1163 3.05805 41.1163 3.88591 41.1163 4.63852C41.1163 5.31409 41.1163 6.28185 41.1539 6.85206C41.167 7.00524 41.23 7.04331 41.356 7.05659C41.4643 7.07334 41.5737 7.08192 41.6832 7.08226C41.814 7.08162 41.9446 7.07304 42.0744 7.05659C42.2126 7.03091 42.2634 6.97956 42.2756 6.85206C42.2879 6.66081 42.301 6.41909 42.301 6.18977C41.797 6.17648 41.6832 6.13841 41.671 5.93477C41.6579 5.70544 41.6579 5.33622 41.6579 5.20872C41.6579 5.08122 41.6579 4.7368 41.671 4.58362C41.6832 4.40654 41.7462 4.3419 41.923 4.32862C42.175 4.31623 43.561 4.30294 43.876 4.30294C44.191 4.30294 45.5639 4.30294 45.8159 4.32862C45.9926 4.34721 46.0679 4.4269 46.0679 4.58893Z" fill="black"/>
<path d="M55.2282 7.23852C55.2405 7.49352 55.2405 7.74852 55.2405 8.02919C55.2405 8.30987 55.2405 8.60294 55.2282 8.85794C55.216 9.17669 55.0532 9.29091 54.7907 9.31659C54.4127 9.35466 51.9811 9.36794 51.3135 9.36794C50.6205 9.36794 48.3901 9.36794 47.7977 9.31659C47.5352 9.29091 47.4075 9.17669 47.3944 8.85794C47.3568 7.82466 47.3567 6.2194 47.3567 4.72836C47.3567 3.23732 47.3568 1.6294 47.3944 0.598775C47.4075 0.280025 47.5335 0.164921 47.7977 0.139244C48.3875 0.0878894 50.617 0.0878906 51.31 0.0878906C51.9776 0.0878906 54.4092 0.100287 54.7872 0.13836C55.0497 0.164037 55.216 0.279142 55.2247 0.597892C55.237 0.852892 55.237 1.14596 55.237 1.42664C55.237 1.70732 55.237 1.96232 55.2247 2.21732C55.2125 2.47232 55.1372 2.57148 54.9097 2.57148H51.2435C51.1297 2.57148 51.0921 2.62195 51.0921 2.80081V3.46221C51.0921 3.6393 51.1297 3.66675 51.2435 3.66675H54.656C54.8704 3.66675 54.9587 3.70482 54.971 3.92174C54.9832 4.17674 54.9832 4.46982 54.9832 4.72482C54.9832 4.97982 54.9832 5.27289 54.971 5.52789C54.9587 5.74482 54.8704 5.78289 54.656 5.78289H51.2435C51.1297 5.78289 51.0921 5.83425 51.0921 6.01221V6.67362C51.0921 6.8507 51.1297 6.87815 51.2435 6.87815H54.9097C55.1399 6.88169 55.2125 6.97024 55.2282 7.23852Z" fill="black"/>
</g>
<defs>
<clipPath id="clip0_2393_912">
<rect width="56" height="34" fill="white"/>
</clipPath>
</defs>
</svg>
