<svg width="154" height="21" viewBox="0 0 154 21" fill="none" xmlns="http://www.w3.org/2000/svg">
<path fill-rule="evenodd" clip-rule="evenodd" d="M153.345 12.8362C153.216 14.2842 151.98 15.1567 150.304 15.3952C150.229 15.406 150.194 15.3088 150.258 15.268C150.544 15.0852 150.725 14.8159 150.768 14.3361C151.049 11.1945 144.737 11.5216 145.083 7.65618C145.197 6.37578 146.522 5.37539 148.116 5.1182C148.19 5.1061 148.229 5.20566 148.166 5.24506C147.771 5.49084 147.513 5.85622 147.472 6.31218C147.215 9.18892 153.696 8.90961 153.345 12.8362Z" fill="black"/>
<path fill-rule="evenodd" clip-rule="evenodd" d="M3.79943 13.8846C3.79943 14.9348 2.9487 15.7859 1.89971 15.7859C0.850727 15.7859 0 14.9348 0 13.8846C0 12.8345 0.850727 11.9834 1.89971 11.9834C2.9487 11.9834 3.79943 12.8345 3.79943 13.8846ZM11.1923 15.4404H7.78422C7.67197 15.4404 7.57077 15.3723 7.52828 15.2679L3.49605 5.34726C3.46876 5.28019 3.46876 5.20553 3.49605 5.13847L5.22514 0.890762C5.27211 0.775996 5.43445 0.775996 5.48108 0.890762L11.3201 15.2499C11.3574 15.3408 11.2904 15.4404 11.1923 15.4404Z" fill="black"/>
<path fill-rule="evenodd" clip-rule="evenodd" d="M16.9245 5.20858V15.3024C16.9245 15.3788 16.8627 15.4407 16.7864 15.4407H13.9541C13.8777 15.4407 13.8159 15.3788 13.8159 15.3024V5.20858C13.8159 5.13219 13.8777 5.07031 13.9541 5.07031H16.7864C16.8627 5.07031 16.9245 5.13219 16.9245 5.20858Z" fill="black"/>
<path fill-rule="evenodd" clip-rule="evenodd" d="M22.7966 8.72545V15.3034C22.7966 15.3798 22.7348 15.4416 22.6584 15.4416H19.8261C19.7498 15.4416 19.688 15.3798 19.688 15.3034V7.31819C19.688 5.75572 19.3343 5.16703 18.7177 5.08372C18.6417 5.0737 18.6317 4.96515 18.7164 4.94545C18.8182 4.92194 18.9972 4.89844 19.3426 4.89844C21.5877 4.89844 22.7966 6.33473 22.7966 8.72545Z" fill="black"/>
<path fill-rule="evenodd" clip-rule="evenodd" d="M31.3895 11.2231L29.6604 15.4704C29.6134 15.5855 29.4511 15.5852 29.4044 15.4701L25.291 5.26009C25.2541 5.16918 25.3214 5.07031 25.4192 5.07031H28.8266C28.9395 5.07031 29.0414 5.1391 29.0832 5.24419L31.3902 11.016C31.4168 11.0824 31.4164 11.1567 31.3895 11.2231Z" fill="black"/>
<path fill-rule="evenodd" clip-rule="evenodd" d="M38.9881 11.2231L37.259 15.4704C37.212 15.5855 37.0497 15.5852 37.0031 15.4701L32.8897 5.26009C32.8527 5.16918 32.9201 5.07031 33.0178 5.07031H36.4252C36.5382 5.07031 36.6401 5.1391 36.6818 5.24419L38.9888 11.016C39.0154 11.0824 39.015 11.1567 38.9881 11.2231Z" fill="black"/>
<path fill-rule="evenodd" clip-rule="evenodd" d="M45.2054 11.2231L43.4763 15.4704C43.4293 15.5855 43.267 15.5852 43.2204 15.4701L39.107 5.26009C39.07 5.16918 39.1374 5.07031 39.2351 5.07031H42.6425C42.7554 5.07031 42.8573 5.1391 42.8991 5.24419L45.2061 11.016C45.2327 11.0824 45.2323 11.1567 45.2054 11.2231Z" fill="black"/>
<path fill-rule="evenodd" clip-rule="evenodd" d="M57.3344 8.72545V15.3034C57.3344 15.3798 57.2722 15.4416 57.1963 15.4416H54.3636C54.2876 15.4416 54.2258 15.3798 54.2258 15.3034V7.31819C54.2258 5.75572 53.8721 5.16703 53.2552 5.08372C53.1796 5.0737 53.1692 4.96515 53.2538 4.94545C53.3561 4.92194 53.535 4.89844 53.8804 4.89844C56.1255 4.89844 57.3344 6.33473 57.3344 8.72545Z" fill="black"/>
<path fill-rule="evenodd" clip-rule="evenodd" d="M51.465 1.06015V15.3021C51.465 15.3785 51.4032 15.4404 51.3268 15.4404H48.4945C48.4182 15.4404 48.3564 15.3785 48.3564 15.3021V1.06015C48.3564 0.983752 48.4182 0.921875 48.4945 0.921875H51.3268C51.4032 0.921875 51.465 0.983752 51.465 1.06015Z" fill="black"/>
<path fill-rule="evenodd" clip-rule="evenodd" d="M59.7544 10.3344V9.98314C59.7841 7.37154 61.4462 5.20759 63.6467 4.75924C63.7092 4.74645 63.7542 4.8225 63.7117 4.87055C63.2664 5.37766 63.2084 6.70057 63.2084 9.98314C63.2088 10.5684 63.2091 10.9424 63.2098 11.1049C63.2291 13.7787 63.4775 15.4262 65.6262 15.4262C65.8884 15.4262 66.1067 15.4176 66.3433 15.4006C66.4369 15.3941 66.4514 15.5064 66.3809 15.5341C65.983 15.6879 65.5692 15.7774 64.9354 15.7774C64.274 15.7774 63.6063 15.6505 62.6913 15.2506C60.9813 14.4548 59.7796 12.5522 59.7544 10.3344Z" fill="black"/>
<path fill-rule="evenodd" clip-rule="evenodd" d="M69.426 9.98314C69.4263 10.0419 69.4263 10.3001 69.426 10.4636C69.426 10.5397 69.3641 10.6016 69.2881 10.6016H66.1101C66.0338 10.6016 65.9719 10.5393 65.9719 10.4633V9.98314C65.9719 6.70057 65.9139 5.37766 65.4687 4.87055C65.4265 4.8225 65.4711 4.74645 65.5336 4.75924C67.7342 5.20793 69.4111 7.37119 69.426 9.98314Z" fill="black"/>
<path fill-rule="evenodd" clip-rule="evenodd" d="M71.9819 5.07031H74.8139C74.8906 5.07031 74.9524 5.13219 74.9524 5.20858V15.3024C74.9524 15.3788 74.8906 15.4407 74.8139 15.4407H71.9819C71.9052 15.4407 71.8438 15.3788 71.8438 15.3024V5.20858C71.8438 5.13219 71.9052 5.07031 71.9819 5.07031ZM77.888 5.07031C78.937 5.07031 79.7877 5.92137 79.7877 6.97155C79.7877 8.02172 78.937 8.87278 77.888 8.87278C76.839 8.87278 75.9883 8.02172 75.9883 6.97155C75.9883 5.92137 76.839 5.07031 77.888 5.07031Z" fill="black"/>
<path fill-rule="evenodd" clip-rule="evenodd" d="M98.2999 0.921849H101.708C101.82 0.921849 101.921 0.989948 101.964 1.09434L105.996 11.015C106.023 11.082 106.023 11.1567 105.996 11.2238L104.267 15.4715C104.22 15.5862 104.058 15.5862 104.011 15.4715L98.1721 1.11232C98.1348 1.0214 98.2018 0.921849 98.2999 0.921849ZM91.0465 0.921849H94.4546C94.5668 0.921849 94.668 0.989948 94.7105 1.09434L98.7427 11.015C98.77 11.082 98.77 11.1567 98.7427 11.2238L97.0136 15.4715C96.967 15.5862 96.8043 15.5862 96.7577 15.4715L90.9187 1.11232C90.8814 1.0214 90.9484 0.921849 91.0465 0.921849ZM107.593 0.576172C108.642 0.576172 109.493 1.42723 109.493 2.47741C109.493 3.52758 108.642 4.37864 107.593 4.37864C106.544 4.37864 105.693 3.52758 105.693 2.47741C105.693 1.42723 106.544 0.576172 107.593 0.576172Z" fill="black"/>
<path fill-rule="evenodd" clip-rule="evenodd" d="M119.855 10.2469C119.825 12.8174 118.164 14.9467 115.964 15.3889C115.901 15.4017 115.857 15.3253 115.9 15.2772C116.343 14.7767 116.401 13.4731 116.401 10.2469V9.90121C116.401 6.67499 116.343 5.37143 115.9 4.87089C115.857 4.82284 115.901 4.74644 115.964 4.75923C118.164 5.20136 119.825 7.33074 119.855 9.90121V10.2469ZM109.838 10.2469V9.90121C109.868 7.33074 111.529 5.20136 113.729 4.75923C113.791 4.74644 113.836 4.82284 113.793 4.87089C113.35 5.37143 113.292 6.67499 113.292 9.90121V10.2469C113.292 13.4731 113.35 14.7767 113.793 15.2772C113.836 15.3253 113.791 15.4017 113.729 15.3889C111.529 14.9467 109.868 12.8174 109.838 10.2469Z" fill="black"/>
<path fill-rule="evenodd" clip-rule="evenodd" d="M128.662 5.06055C129.711 5.06055 130.562 5.91161 130.562 6.96178C130.562 8.01195 129.711 8.86302 128.662 8.86302C127.613 8.86302 126.763 8.01195 126.763 6.96178C126.763 5.91161 127.613 5.06055 128.662 5.06055Z" fill="black"/>
<path fill-rule="evenodd" clip-rule="evenodd" d="M122.756 5.07031H125.588C125.665 5.07031 125.727 5.13219 125.727 5.20858V15.3024C125.727 15.3788 125.665 15.4407 125.588 15.4407H122.756C122.68 15.4407 122.618 15.3788 122.618 15.3024V5.20858C122.618 5.13219 122.68 5.07031 122.756 5.07031Z" fill="black"/>
<path fill-rule="evenodd" clip-rule="evenodd" d="M135.743 15.3021C135.743 15.3785 135.681 15.4404 135.605 15.4404H132.773C132.697 15.4404 132.635 15.3785 132.635 15.3021V1.06015C132.635 0.983752 132.697 0.921875 132.773 0.921875H135.605C135.681 0.921875 135.743 0.983752 135.743 1.06015V15.3021Z" fill="black"/>
<path fill-rule="evenodd" clip-rule="evenodd" d="M136.838 11.041C136.803 10.9905 136.806 10.9234 136.844 10.8754L138.907 8.30769C138.968 8.24305 139.072 8.25065 139.122 8.32359L143.883 15.2237C143.946 15.3156 143.881 15.4408 143.769 15.4408H140.036C139.943 15.4408 139.857 15.3945 139.806 15.3174L136.838 11.041Z" fill="black"/>
<path fill-rule="evenodd" clip-rule="evenodd" d="M80.8242 10.3344V9.98314C80.8539 7.37154 82.516 5.20759 84.7166 4.75924C84.7791 4.74645 84.824 4.8225 84.7815 4.87055C84.3363 5.37766 84.2782 6.70057 84.2782 9.98314C84.2786 10.5684 84.2789 10.9424 84.2796 11.1049C84.299 13.7787 84.5473 15.4262 86.6961 15.4262C86.9582 15.4262 87.1765 15.4176 87.4131 15.4006C87.5067 15.3941 87.5212 15.5064 87.4508 15.5341C87.0529 15.6879 86.6391 15.7774 86.0053 15.7774C85.3438 15.7774 84.6761 15.6505 83.7612 15.2506C82.0511 14.4548 80.8494 12.5522 80.8242 10.3344Z" fill="black"/>
<path fill-rule="evenodd" clip-rule="evenodd" d="M90.4953 9.98314V10.4633C90.4953 10.5393 90.4335 10.6016 90.3571 10.6016H87.1794C87.1031 10.6016 87.0413 10.5393 87.0413 10.4633V9.98314C87.0413 6.70057 86.9832 5.37766 86.538 4.87055C86.4959 4.8225 86.5404 4.74645 86.6029 4.75924C88.8035 5.20793 90.4656 7.37154 90.4953 9.98314Z" fill="black"/>
<path fill-rule="evenodd" clip-rule="evenodd" d="M146.107 12.6738H145.554C145.478 12.6738 145.416 12.7357 145.416 12.8121V15.301C145.416 15.3774 145.478 15.4393 145.554 15.4393H148.041C148.117 15.4393 148.179 15.3774 148.179 15.301V14.7479C148.179 13.6027 147.251 12.6738 146.107 12.6738Z" fill="black"/>
<path fill-rule="evenodd" clip-rule="evenodd" d="M151.977 7.83574H152.53C152.606 7.83574 152.668 7.77387 152.668 7.69747V5.20858C152.668 5.13219 152.606 5.07031 152.53 5.07031H150.043C149.967 5.07031 149.905 5.13219 149.905 5.20858V5.76167C149.905 6.9069 150.833 7.83574 151.977 7.83574Z" fill="black"/>
<path fill-rule="evenodd" clip-rule="evenodd" d="M26.4232 16.1328C27.4721 16.1328 28.3229 16.9839 28.3229 18.034C28.3229 19.0842 27.4721 19.9353 26.4232 19.9353C25.3742 19.9353 24.5234 19.0842 24.5234 18.034C24.5234 16.9839 25.3742 16.1328 26.4232 16.1328Z" fill="black"/>
</svg>
