<svg width="96" height="32" viewBox="0 0 96 32" fill="none" xmlns="http://www.w3.org/2000/svg">
<g clip-path="url(#clip0_2534_331)">
<path d="M88.1078 -0.000140141H7.62774C7.33438 -0.000140141 7.04454 -0.000140141 6.75196 0.00145986C6.50704 0.00305986 6.26407 0.00770786 6.0168 0.0116199C5.47961 0.0179413 4.94369 0.0652009 4.41368 0.152988C3.88442 0.242686 3.37174 0.411792 2.89298 0.654588C2.4148 0.899437 1.97788 1.21759 1.59806 1.59752C1.21624 1.97637 0.897971 2.41427 0.65548 2.89439C0.41232 3.37355 0.243712 3.88701 0.15548 4.41704C0.0664088 4.94641 0.0184787 5.48188 0.01212 6.01864C0.004696 6.26392 0.003912 6.51002 0 6.75533V25.2467C0.003912 25.4951 0.004696 25.7358 0.01212 25.9843C0.0184807 26.521 0.0664107 27.0564 0.15548 27.5858C0.243469 28.1161 0.412087 28.6299 0.65548 29.1092C0.89786 29.5878 1.21618 30.0239 1.59806 30.4007C1.97644 30.7823 2.41364 31.1006 2.89298 31.3436C3.37173 31.5871 3.88436 31.7572 4.41368 31.8483C4.94378 31.9353 5.47965 31.9826 6.0168 31.9897C6.26407 31.9951 6.50704 31.9983 6.75196 31.9983C7.04454 31.9999 7.3344 31.9999 7.62774 31.9999H88.1078C88.3953 31.9999 88.6875 31.9999 88.975 31.9983C89.2188 31.9983 89.4688 31.9951 89.7125 31.9897C90.2487 31.983 90.7835 31.9357 91.3125 31.8483C91.8436 31.7565 92.358 31.5865 92.8391 31.3436C93.318 31.1005 93.7548 30.7821 94.1329 30.4007C94.5137 30.0224 94.8327 29.5866 95.0781 29.1092C95.3197 28.6295 95.4867 28.1158 95.5734 27.5858C95.6626 27.0564 95.7123 26.521 95.7219 25.9843C95.725 25.7358 95.725 25.4951 95.725 25.2467C95.7313 24.9561 95.7313 24.6671 95.7313 24.3717V7.62876C95.7313 7.33579 95.7313 7.04517 95.725 6.75533C95.725 6.51002 95.725 6.26392 95.7219 6.01861C95.7123 5.4818 95.6626 4.94645 95.5734 4.41701C95.4865 3.88728 95.3195 3.37386 95.0781 2.89436C94.5843 1.93202 93.8013 1.14868 92.8391 0.654516C92.358 0.412314 91.8435 0.243252 91.3125 0.152916C90.7836 0.0647421 90.2487 0.0174661 89.7125 0.0115079C89.4688 0.00760386 89.2188 0.00291586 88.975 0.00135586C88.6875 -0.000244141 88.3953 -0.000244141 88.1078 -0.000244141V-0.000140141Z" fill="#A6A6A6"/>
<path d="M6.75588 31.3C6.51214 31.3 6.27428 31.2968 6.03245 31.2914C5.53148 31.2849 5.03167 31.2413 4.53714 31.1609C4.07601 31.0815 3.6293 30.9338 3.21175 30.7226C2.79802 30.5132 2.42067 30.2386 2.09415 29.9093C1.7629 29.5839 1.48712 29.2065 1.27774 28.7921C1.06605 28.375 0.919548 27.9279 0.843337 27.4664C0.761037 26.9704 0.716509 26.469 0.710137 25.9664C0.705065 25.7976 0.698425 25.2359 0.698425 25.2359V6.75542C0.698425 6.75542 0.705497 6.2023 0.710177 6.03979C0.716278 5.53794 0.760547 5.03727 0.842601 4.54214C0.918952 4.07935 1.06557 3.63095 1.27737 3.21246C1.48598 2.79831 1.76023 2.42064 2.08948 2.0941C2.41836 1.76445 2.79692 1.48843 3.21135 1.27612C3.62795 1.06563 4.07381 0.918937 4.53401 0.840967C5.03017 0.75982 5.53171 0.715948 6.03442 0.709719L6.75627 0.699951H88.9711L89.7016 0.710111C90.1997 0.716031 90.6967 0.759511 91.1883 0.840183C91.6532 0.919131 92.1037 1.06684 92.525 1.27846C93.3553 1.70634 94.0309 2.38328 94.457 3.21441C94.6655 3.63001 94.8098 4.07476 94.8852 4.53354C94.9682 5.03274 95.0147 5.53734 95.0242 6.04331C95.0266 6.26987 95.0266 6.51323 95.0266 6.75542C95.0329 7.05542 95.0329 7.34097 95.0329 7.62886V24.3718C95.0329 24.6624 95.0329 24.946 95.0266 25.232C95.0266 25.4921 95.0266 25.7304 95.0234 25.9757C95.0141 26.4727 94.9684 26.9682 94.8867 27.4585C94.8121 27.9234 94.6664 28.374 94.4547 28.7945C94.2439 29.2044 93.9697 29.5786 93.6422 29.9031C93.3154 30.2341 92.9374 30.5103 92.5227 30.7211C92.1025 30.9339 91.6527 31.0821 91.1883 31.1609C90.6938 31.2417 90.194 31.2853 89.693 31.2914C89.4586 31.2968 89.2133 31.3 88.975 31.3L88.1078 31.3015L6.75588 31.3Z" fill="black"/>
<path d="M19.8153 16.2404C19.8239 15.5726 20.0012 14.9179 20.3309 14.3372C20.6605 13.7564 21.1316 13.2685 21.7005 12.9187C21.3391 12.4026 20.8624 11.9778 20.3081 11.6782C19.7538 11.3785 19.1374 11.2123 18.5076 11.1926C17.1642 11.0516 15.8618 11.9964 15.1773 11.9964C14.4795 11.9964 13.4255 11.2066 12.2905 11.2299C11.5563 11.2536 10.8409 11.4671 10.2137 11.8496C9.58665 12.232 9.0693 12.7704 8.71213 13.4122C7.16493 16.091 8.319 20.0278 9.80109 22.1931C10.5426 23.2534 11.4092 24.4377 12.5432 24.3957C13.6528 24.3497 14.0673 23.6881 15.4067 23.6881C16.7337 23.6881 17.1225 24.3957 18.2795 24.369C19.4702 24.3497 20.2204 23.304 20.9359 22.2337C21.4687 21.4782 21.8787 20.6432 22.1507 19.7597C21.4589 19.4671 20.8686 18.9774 20.4533 18.3515C20.038 17.7257 19.8161 16.9915 19.8153 16.2404Z" fill="white"/>
<path d="M17.6301 9.76857C18.2794 8.9892 18.5992 7.98746 18.5218 6.97607C17.5299 7.08025 16.6137 7.5543 15.9557 8.30376C15.634 8.66989 15.3876 9.09584 15.2306 9.55726C15.0736 10.0187 15.0091 10.5065 15.0407 10.9929C15.5368 10.998 16.0276 10.8905 16.4762 10.6784C16.9247 10.4663 17.3193 10.1552 17.6301 9.76857Z" fill="white"/>
<path d="M33.8422 21.7116H30.0555L29.1461 24.3968H27.5422L31.1289 14.4624H32.7953L36.382 24.3968H34.7508L33.8422 21.7116ZM30.4476 20.4726H33.4492L31.9696 16.1148H31.9281L30.4476 20.4726Z" fill="white"/>
<path d="M44.1282 20.7757C44.1282 23.0264 42.9235 24.4725 41.1055 24.4725C40.645 24.4966 40.187 24.3905 39.7839 24.1664C39.3809 23.9423 39.0491 23.6092 38.8266 23.2053H38.7922V26.7928H37.3055V17.1538H38.7446V18.3585H38.7719C39.0047 17.9565 39.3421 17.6251 39.7482 17.3997C40.1543 17.1742 40.6139 17.063 41.0782 17.078C42.9164 17.078 44.1282 18.5311 44.1282 20.7757ZM42.6 20.7757C42.6 19.3093 41.8422 18.3452 40.686 18.3452C39.55 18.3452 38.786 19.3296 38.786 20.7757C38.786 22.235 39.55 23.2124 40.686 23.2124C41.8422 23.2124 42.6 22.2553 42.6 20.7757Z" fill="white"/>
<path d="M52.1 20.7757C52.1 23.0264 50.8953 24.4725 49.0774 24.4725C48.6168 24.4966 48.1588 24.3905 47.7558 24.1664C47.3528 23.9423 47.021 23.6092 46.7985 23.2053H46.7641V26.7928H45.2773V17.1538H46.7164V18.3585H46.7437C46.9765 17.9565 47.3139 17.6251 47.72 17.3997C48.1261 17.1742 48.5857 17.063 49.05 17.078C50.8883 17.078 52.1 18.5311 52.1 20.7757ZM50.5719 20.7757C50.5719 19.3093 49.8141 18.3452 48.6578 18.3452C47.5219 18.3452 46.7578 19.3296 46.7578 20.7757C46.7578 22.235 47.5219 23.2124 48.6578 23.2124C49.8141 23.2124 50.5719 22.2553 50.5719 20.7757H50.5719Z" fill="white"/>
<path d="M57.3688 21.6289C57.4789 22.6141 58.436 23.2609 59.7438 23.2609C60.9969 23.2609 61.8984 22.6141 61.8984 21.7258C61.8984 20.9547 61.3547 20.493 60.0672 20.1766L58.7797 19.8664C56.9555 19.4258 56.1086 18.5727 56.1086 17.1883C56.1086 15.4742 57.6024 14.2969 59.7234 14.2969C61.8226 14.2969 63.2617 15.4742 63.3102 17.1883H61.8094C61.7195 16.1969 60.9 15.5984 59.7023 15.5984C58.5047 15.5984 57.6852 16.2039 57.6852 17.0852C57.6852 17.7875 58.2086 18.2008 59.4891 18.5172L60.5836 18.7859C62.6219 19.2679 63.4687 20.0867 63.4687 21.5398C63.4687 23.3984 61.9883 24.5625 59.6336 24.5625C57.4305 24.5625 55.943 23.4258 55.8469 21.6289L57.3688 21.6289Z" fill="white"/>
<path d="M66.6774 15.4399V17.154H68.0547V18.3313H66.6774V22.3243C66.6774 22.9446 66.9531 23.2337 67.5586 23.2337C67.7221 23.2308 67.8854 23.2194 68.0477 23.1993V24.3696C67.7755 24.4205 67.4988 24.4435 67.2219 24.4384C65.7555 24.4384 65.1836 23.8876 65.1836 22.4829V18.3313H64.1305V17.154H65.1836V15.4399H66.6774Z" fill="white"/>
<path d="M68.8524 20.7759C68.8524 18.497 70.1945 17.0649 72.2875 17.0649C74.3875 17.0649 75.7234 18.4969 75.7234 20.7759C75.7234 23.061 74.3945 24.4868 72.2875 24.4868C70.1812 24.4868 68.8524 23.061 68.8524 20.7759ZM74.2086 20.7759C74.2086 19.2126 73.4922 18.2899 72.2875 18.2899C71.0828 18.2899 70.3672 19.2196 70.3672 20.7759C70.3672 22.3454 71.0828 23.261 72.2875 23.261C73.4922 23.261 74.2086 22.3454 74.2086 20.7759H74.2086Z" fill="white"/>
<path d="M76.9492 17.154H78.3672V18.3868H78.4016C78.4975 18.0017 78.7231 17.6615 79.0404 17.4232C79.3576 17.1848 79.7473 17.063 80.1438 17.0782C80.3151 17.0776 80.486 17.0962 80.6532 17.1336V18.5243C80.4369 18.4582 80.2112 18.4278 79.9852 18.4344C79.7692 18.4257 79.5539 18.4637 79.354 18.546C79.1541 18.6284 78.9744 18.7529 78.8272 18.9113C78.68 19.0696 78.5689 19.2579 78.5013 19.4632C78.4338 19.6685 78.4115 19.886 78.4359 20.1008V24.3969H76.9492L76.9492 17.154Z" fill="white"/>
<path d="M87.5078 22.2696C87.3078 23.5845 86.0274 24.4868 84.3891 24.4868C82.2821 24.4868 80.9742 23.0751 80.9742 20.8103C80.9742 18.5384 82.2891 17.0649 84.3266 17.0649C86.3305 17.0649 87.5907 18.4415 87.5907 20.6376V21.147H82.475V21.2368C82.4514 21.5034 82.4848 21.7719 82.5729 22.0246C82.6611 22.2773 82.802 22.5083 82.9863 22.7023C83.1705 22.8964 83.394 23.049 83.6418 23.15C83.8896 23.2511 84.156 23.2982 84.4235 23.2884C84.7748 23.3213 85.1274 23.2399 85.4287 23.0564C85.7301 22.8728 85.9642 22.5969 86.0961 22.2696L87.5078 22.2696ZM82.4821 20.1079H86.1031C86.1165 19.8682 86.0802 19.6284 85.9964 19.4034C85.9127 19.1784 85.7833 18.9732 85.6165 18.8006C85.4497 18.628 85.249 18.4917 85.027 18.4004C84.805 18.309 84.5666 18.2645 84.3266 18.2696C84.0845 18.2682 83.8445 18.3147 83.6205 18.4065C83.3964 18.4983 83.1928 18.6335 83.0213 18.8044C82.8498 18.9754 82.7139 19.1785 82.6213 19.4023C82.5288 19.626 82.4814 19.8658 82.4821 20.1079V20.1079Z" fill="white"/>
<path d="M30.2611 6.98466C30.5728 6.9623 30.8855 7.00939 31.1768 7.12253C31.4681 7.23568 31.7307 7.41206 31.9455 7.63896C32.1604 7.86586 32.3222 8.13762 32.4194 8.43464C32.5165 8.73165 32.5465 9.04653 32.5072 9.35654C32.5072 10.8815 31.683 11.7581 30.2611 11.7581H28.5369V6.98466H30.2611ZM29.2783 11.0831H30.1783C30.401 11.0964 30.6239 11.0599 30.8307 10.9762C31.0375 10.8925 31.2231 10.7637 31.3739 10.5993C31.5247 10.4348 31.6369 10.2388 31.7024 10.0255C31.7679 9.81222 31.785 9.587 31.7525 9.36627C31.7826 9.1464 31.7638 8.92258 31.6973 8.71085C31.6308 8.49912 31.5183 8.30472 31.3679 8.14157C31.2174 7.97843 31.0327 7.85058 30.8271 7.76719C30.6214 7.6838 30.3999 7.64694 30.1783 7.65923H29.2783V11.0831Z" fill="white"/>
<path d="M33.3449 9.95528C33.3222 9.71855 33.3493 9.4797 33.4244 9.25404C33.4995 9.02838 33.6209 8.82091 33.7808 8.64492C33.9408 8.46894 34.1358 8.32833 34.3532 8.23211C34.5707 8.13589 34.8059 8.08618 35.0437 8.08618C35.2815 8.08618 35.5167 8.13589 35.7342 8.23211C35.9517 8.32833 36.1467 8.46894 36.3066 8.64492C36.4666 8.82091 36.588 9.02838 36.663 9.25404C36.7381 9.4797 36.7652 9.71855 36.7425 9.95528C36.7656 10.1923 36.7389 10.4314 36.664 10.6575C36.5891 10.8835 36.4678 11.0913 36.3078 11.2677C36.1478 11.444 35.9527 11.5849 35.735 11.6813C35.5173 11.7778 35.2818 11.8276 35.0437 11.8276C34.8056 11.8276 34.5702 11.7778 34.3525 11.6813C34.1348 11.5849 33.9396 11.444 33.7796 11.2677C33.6197 11.0913 33.4983 10.8835 33.4234 10.6575C33.3486 10.4314 33.3218 10.1923 33.3449 9.95528ZM36.0113 9.95528C36.0113 9.17443 35.6605 8.71779 35.0449 8.71779C34.4269 8.71779 34.0793 9.17443 34.0793 9.95529C34.0793 10.7424 34.4269 11.1955 35.0449 11.1955C35.6605 11.1955 36.0113 10.7393 36.0113 9.95528H36.0113Z" fill="white"/>
<path d="M41.2587 11.7581H40.5212L39.7767 9.10498H39.7205L38.9791 11.7581H38.2486L37.2556 8.15576H37.9767L38.622 10.9046H38.6752L39.4158 8.15576H40.0978L40.8384 10.9046H40.8947L41.5369 8.15576H42.2478L41.2587 11.7581Z" fill="white"/>
<path d="M43.083 8.15585H43.7673V8.72811H43.8204C43.9106 8.52257 44.0626 8.35028 44.2553 8.23523C44.448 8.12019 44.6718 8.06813 44.8954 8.08631C45.0707 8.07313 45.2467 8.09956 45.4104 8.16364C45.5741 8.22771 45.7212 8.3278 45.841 8.45647C45.9607 8.58515 46.05 8.73912 46.1022 8.90697C46.1543 9.07483 46.168 9.25227 46.1423 9.42615V11.7581H45.4314V9.60468C45.4314 9.02577 45.1798 8.73788 44.654 8.73788C44.535 8.73234 44.4162 8.75259 44.3058 8.79725C44.1953 8.84192 44.0959 8.90994 44.0142 8.99664C43.9325 9.08335 43.8705 9.1867 43.8325 9.2996C43.7944 9.41251 43.7813 9.5323 43.7939 9.65077V11.7582H43.0829L43.083 8.15585Z" fill="white"/>
<path d="M47.2751 6.74951H47.9861V11.7581H47.2751V6.74951Z" fill="white"/>
<path d="M48.9746 9.95535C48.9519 9.7186 48.979 9.47973 49.0541 9.25407C49.1292 9.02841 49.2506 8.82092 49.4106 8.64493C49.5706 8.46894 49.7656 8.32833 49.9831 8.23211C50.2006 8.13589 50.4358 8.08618 50.6736 8.08618C50.9114 8.08618 51.1466 8.13589 51.3641 8.23211C51.5816 8.32833 51.7766 8.46894 51.9366 8.64493C52.0965 8.82092 52.218 9.02841 52.2931 9.25407C52.3681 9.47973 52.3952 9.7186 52.3726 9.95535C52.3957 10.1923 52.3689 10.4315 52.294 10.6575C52.2191 10.8836 52.0977 11.0914 51.9377 11.2677C51.7777 11.4441 51.5826 11.585 51.3649 11.6814C51.1472 11.7778 50.9117 11.8276 50.6736 11.8276C50.4355 11.8276 50.2 11.7778 49.9823 11.6814C49.7646 11.585 49.5695 11.4441 49.4095 11.2677C49.2495 11.0914 49.1281 10.8836 49.0532 10.6575C48.9783 10.4315 48.9515 10.1923 48.9746 9.95535ZM51.641 9.95535C51.641 9.1745 51.2902 8.71786 50.6746 8.71786C50.0566 8.71786 49.709 9.1745 49.709 9.95536C49.709 10.7425 50.0566 11.1956 50.6746 11.1956C51.2902 11.1956 51.641 10.7393 51.641 9.95535H51.641Z" fill="white"/>
<path d="M53.1208 10.7393C53.1208 10.0909 53.6037 9.71704 54.4607 9.66391L55.4365 9.60766V9.29673C55.4365 8.91625 55.1849 8.70141 54.699 8.70141C54.3021 8.70141 54.0271 8.84712 53.9482 9.10181H53.2599C53.3326 8.48305 53.9146 8.08618 54.7318 8.08618C55.6349 8.08618 56.1443 8.53578 56.1443 9.29673V11.7581H55.4599V11.2518H55.4037C55.2895 11.4334 55.1292 11.5814 54.9391 11.6808C54.749 11.7802 54.5359 11.8273 54.3216 11.8174C54.1704 11.8331 54.0176 11.817 53.8729 11.77C53.7283 11.7231 53.5952 11.6463 53.482 11.5448C53.3689 11.4432 53.2783 11.319 53.2161 11.1803C53.1539 11.0416 53.1214 10.8913 53.1208 10.7393ZM55.4365 10.4315V10.1303L54.5568 10.1866C54.0607 10.2198 53.8357 10.3885 53.8357 10.7061C53.8357 11.0303 54.1169 11.219 54.5037 11.219C54.617 11.2305 54.7315 11.219 54.8403 11.1853C54.9491 11.1517 55.05 11.0965 55.137 11.023C55.2241 10.9495 55.2954 10.8593 55.3469 10.7577C55.3983 10.656 55.4288 10.5451 55.4365 10.4315Z" fill="white"/>
<path d="M57.0786 9.95538C57.0786 8.8171 57.6638 8.09601 58.5739 8.09601C58.7991 8.08563 59.0225 8.13956 59.2181 8.25147C59.4137 8.36339 59.5735 8.52867 59.6786 8.72801H59.7317V6.74951H60.4427V11.7581H59.7614V11.189H59.7052C59.5919 11.387 59.4266 11.5502 59.2272 11.661C59.0278 11.7718 58.8019 11.8259 58.5739 11.8175C57.6575 11.8175 57.0786 11.0964 57.0786 9.95538ZM57.813 9.95538C57.813 10.7194 58.1732 11.1792 58.7755 11.1792C59.3747 11.1792 59.745 10.7128 59.745 9.95851C59.745 9.20773 59.3708 8.73468 58.7755 8.73468C58.1771 8.73468 57.813 9.19757 57.813 9.95538H57.813Z" fill="white"/>
<path d="M63.384 9.95528C63.3613 9.71855 63.3884 9.4797 63.4635 9.25404C63.5385 9.02838 63.6599 8.82091 63.8199 8.64492C63.9798 8.46894 64.1748 8.32833 64.3923 8.23211C64.6098 8.13589 64.845 8.08618 65.0828 8.08618C65.3206 8.08618 65.5558 8.13589 65.7733 8.23211C65.9907 8.32833 66.1857 8.46894 66.3457 8.64492C66.5056 8.82091 66.627 9.02838 66.7021 9.25404C66.7772 9.4797 66.8043 9.71855 66.7816 9.95528C66.8047 10.1923 66.7779 10.4314 66.703 10.6575C66.6282 10.8835 66.5068 11.0913 66.3468 11.2677C66.1869 11.444 65.9917 11.5849 65.774 11.6813C65.5563 11.7778 65.3209 11.8276 65.0828 11.8276C64.8447 11.8276 64.6092 11.7778 64.3915 11.6813C64.1738 11.5849 63.9787 11.444 63.8187 11.2677C63.6587 11.0913 63.5374 10.8835 63.4625 10.6575C63.3876 10.4314 63.3609 10.1923 63.384 9.95528ZM66.0504 9.95528C66.0504 9.17443 65.6996 8.71779 65.084 8.71779C64.466 8.71779 64.1184 9.17443 64.1184 9.95529C64.1184 10.7424 64.466 11.1955 65.084 11.1955C65.6996 11.1955 66.0504 10.7393 66.0504 9.95528Z" fill="white"/>
<path d="M67.7357 8.15585H68.42V8.72811H68.4732C68.5633 8.52257 68.7153 8.35028 68.908 8.23523C69.1007 8.12019 69.3245 8.06813 69.5482 8.08631C69.7234 8.07313 69.8994 8.09956 70.0631 8.16364C70.2268 8.22771 70.374 8.3278 70.4937 8.45647C70.6135 8.58515 70.7027 8.73912 70.7549 8.90697C70.807 9.07483 70.8208 9.25227 70.795 9.42615V11.7581H70.0841V9.60468C70.0841 9.02577 69.8325 8.73788 69.3068 8.73788C69.1878 8.73234 69.0689 8.75259 68.9585 8.79725C68.8481 8.84192 68.7486 8.90994 68.6669 8.99664C68.5852 9.08335 68.5232 9.1867 68.4852 9.2996C68.4471 9.41251 68.434 9.5323 68.4466 9.65077V11.7582H67.7357V8.15585Z" fill="white"/>
<path d="M74.8122 7.25879V8.17207H75.5927V8.7709H74.8122V10.6232C74.8122 11.0006 74.9677 11.1658 75.3216 11.1658C75.4122 11.1655 75.5027 11.1601 75.5927 11.1494V11.7416C75.465 11.7644 75.3357 11.7766 75.206 11.7779C74.4153 11.7779 74.1005 11.4998 74.1005 10.8053V8.77087H73.5286V8.17204H74.1005V7.25879H74.8122Z" fill="white"/>
<path d="M76.5638 6.74951H77.2685V8.73467H77.3247C77.4192 8.52722 77.5754 8.35394 77.772 8.23846C77.9685 8.12299 78.1959 8.07092 78.4231 8.08936C78.5975 8.07987 78.7718 8.10898 78.9336 8.17462C79.0954 8.24025 79.2408 8.34079 79.3593 8.46906C79.4778 8.59733 79.5665 8.75017 79.6191 8.91668C79.6718 9.08319 79.687 9.25926 79.6637 9.43233V11.7581H78.9521V9.60771C78.9521 9.03232 78.6841 8.74091 78.1818 8.74091C78.0596 8.73089 77.9367 8.74769 77.8217 8.79013C77.7066 8.83257 77.6023 8.89964 77.5159 8.98663C77.4295 9.07362 77.3631 9.17843 77.3215 9.29374C77.2798 9.40905 77.2639 9.53207 77.2747 9.65419V11.7581H76.5638L76.5638 6.74951Z" fill="white"/>
<path d="M83.8092 10.7855C83.7126 11.1147 83.5033 11.3995 83.218 11.59C82.9326 11.7805 82.5894 11.8646 82.2483 11.8276C82.0109 11.8339 81.7751 11.7885 81.5571 11.6944C81.3391 11.6004 81.1442 11.4601 80.9858 11.2832C80.8275 11.1062 80.7096 10.897 80.6402 10.6699C80.5709 10.4429 80.5518 10.2035 80.5842 9.96827C80.5526 9.73237 80.5721 9.49242 80.6412 9.26468C80.7104 9.03694 80.8277 8.82673 80.9852 8.64827C81.1427 8.46981 81.3367 8.32728 81.5541 8.23031C81.7715 8.13334 82.0071 8.08421 82.2451 8.08624C83.2475 8.08624 83.8522 8.77104 83.8522 9.90224V10.1503H81.3084V10.1902C81.2973 10.3224 81.3139 10.4554 81.3572 10.5808C81.4005 10.7062 81.4695 10.8212 81.5599 10.9183C81.6502 11.0155 81.7598 11.0927 81.8817 11.145C82.0036 11.1974 82.1351 11.2236 82.2678 11.2222C82.4379 11.2426 82.6101 11.2119 82.7628 11.1342C82.9154 11.0564 83.0414 10.935 83.1248 10.7854L83.8092 10.7855ZM81.3084 9.62452H83.1279C83.1369 9.50362 83.1205 9.38218 83.0797 9.26801C83.0389 9.15383 82.9747 9.04945 82.8912 8.96156C82.8077 8.87367 82.7068 8.80423 82.5948 8.75769C82.4829 8.71115 82.3624 8.68854 82.2412 8.69132C82.1183 8.68978 81.9962 8.71286 81.8823 8.75922C81.7684 8.80557 81.665 8.87426 81.578 8.96123C81.4911 9.0482 81.4225 9.1517 81.3762 9.26561C81.3299 9.37953 81.3068 9.50156 81.3084 9.62452H81.3084Z" fill="white"/>
</g>
<defs>
<clipPath id="clip0_2534_331">
<rect width="96" height="32" fill="white"/>
</clipPath>
</defs>
</svg>
