<svg width="19" height="19" viewBox="0 0 19 19" fill="none" xmlns="http://www.w3.org/2000/svg">
<path fill-rule="evenodd" clip-rule="evenodd" d="M18.1096 9.63094C18.1096 4.62891 14.0568 0.576172 9.05479 0.576172C4.05276 0.576172 1.90735e-05 4.62891 1.90735e-05 9.63094C1.90735e-05 14.1503 3.31122 17.8963 7.63998 18.5762V12.2484H5.33978V9.63094H7.63998V7.63597C7.63998 5.3668 8.99089 4.11337 11.06 4.11337C12.0509 4.11337 13.0871 4.29009 13.0871 4.29009V6.51727H11.945C10.8205 6.51727 10.4696 7.21536 10.4696 7.93134V9.63094H12.9808L12.5792 12.2484H10.4696V18.5762C14.7984 17.8963 18.1096 14.1503 18.1096 9.63094Z" fill="black"/>
</svg>
