<svg width="108" height="32" viewBox="0 0 108 32" fill="none" xmlns="http://www.w3.org/2000/svg">
<g clip-path="url(#clip0_2534_366)">
<path d="M104 0H4C1.79086 0 0 1.79086 0 4V28C0 30.2091 1.79086 32 4 32H104C106.209 32 108 30.2091 108 28V4C108 1.79086 106.209 0 104 0Z" fill="black"/>
<path d="M104 0.64C104.891 0.64 105.746 0.993999 106.376 1.62412C107.006 2.25424 107.36 3.10887 107.36 4V28C107.36 28.8911 107.006 29.7458 106.376 30.3759C105.746 31.006 104.891 31.36 104 31.36H4C3.10887 31.36 2.25424 31.006 1.62412 30.3759C0.993999 29.7458 0.64 28.8911 0.64 28V4C0.64 3.10887 0.993999 2.25424 1.62412 1.62412C2.25424 0.993999 3.10887 0.64 4 0.64H104ZM104 0H4C2.93913 0 1.92172 0.421427 1.17157 1.17157C0.421427 1.92172 0 2.93913 0 4V28C0 29.0609 0.421427 30.0783 1.17157 30.8284C1.92172 31.5786 2.93913 32 4 32H104C105.061 32 106.078 31.5786 106.828 30.8284C107.579 30.0783 108 29.0609 108 28V4C108 2.93913 107.579 1.92172 106.828 1.17157C106.078 0.421427 105.061 0 104 0Z" fill="#A6A6A6"/>
<path d="M37.936 8.19192C37.9492 8.4853 37.9028 8.77831 37.7997 9.05328C37.6965 9.32826 37.5388 9.57952 37.336 9.79192C37.1088 10.0266 36.8345 10.2106 36.5312 10.3319C36.2279 10.4532 35.9024 10.5091 35.576 10.4959C35.2478 10.5032 34.9215 10.4431 34.6174 10.3193C34.3133 10.1954 34.0378 10.0105 33.808 9.77592C33.3419 9.2991 33.0809 8.65875 33.0809 7.99192C33.0809 7.32509 33.3419 6.68475 33.808 6.20792C34.1644 5.85967 34.6158 5.62451 35.1054 5.53199C35.5951 5.43948 36.1011 5.49372 36.56 5.68792C36.8485 5.80651 37.1058 5.98991 37.312 6.22392L36.888 6.64792C36.7292 6.45654 36.5279 6.30483 36.3001 6.20485C36.0724 6.10486 35.8244 6.05935 35.576 6.07192C35.2624 6.07409 34.9542 6.15304 34.6781 6.30185C34.4021 6.45067 34.1667 6.66484 33.9926 6.92562C33.8184 7.18641 33.7108 7.48589 33.6791 7.79787C33.6475 8.10986 33.6927 8.42485 33.8108 8.71533C33.929 9.00581 34.1165 9.26292 34.357 9.4642C34.5974 9.66547 34.8835 9.80478 35.1903 9.86996C35.497 9.93513 35.8151 9.92417 36.1166 9.83805C36.4181 9.75193 36.694 9.59327 36.92 9.37592C37.1644 9.108 37.3061 8.76227 37.32 8.39992H35.576V7.82392H37.904C37.9222 7.94582 37.9329 8.06872 37.936 8.19192Z" fill="white" stroke="white" stroke-width="0.16" stroke-miterlimit="10"/>
<path d="M41.6 6.1921H39.44V7.7121H41.408V8.2881H39.44V9.8081H41.6V10.4001H38.816V5.6001H41.6V6.1921Z" fill="white" stroke="white" stroke-width="0.16" stroke-miterlimit="10"/>
<path d="M44.224 10.4001H43.608V6.1921H42.264V5.6001H45.6V6.1921H44.224V10.4001Z" fill="white" stroke="white" stroke-width="0.16" stroke-miterlimit="10"/>
<path d="M47.952 10.4001V5.6001H48.568V10.4001H47.952Z" fill="white" stroke="white" stroke-width="0.16" stroke-miterlimit="10"/>
<path d="M51.3039 10.4001H50.6879V6.1921H49.3439V5.6001H52.6399V6.1921H51.3039V10.4001Z" fill="white" stroke="white" stroke-width="0.16" stroke-miterlimit="10"/>
<path d="M58.8879 9.77592C58.6569 10.0072 58.3825 10.1906 58.0805 10.3158C57.7785 10.4409 57.4548 10.5054 57.1279 10.5054C56.801 10.5054 56.4774 10.4409 56.1754 10.3158C55.8734 10.1906 55.599 10.0072 55.3679 9.77592C54.9157 9.29516 54.6639 8.65997 54.6639 7.99992C54.6639 7.33987 54.9157 6.70468 55.3679 6.22392C55.594 5.98616 55.8675 5.79851 56.1707 5.6731C56.4738 5.5477 56.8 5.48734 57.1279 5.49592C57.4555 5.49074 57.7806 5.55266 58.0833 5.67786C58.3859 5.80306 58.6598 5.98889 58.8879 6.22392C59.118 6.45791 59.2988 6.73563 59.4197 7.04066C59.5406 7.3457 59.5992 7.67187 59.5919 7.99992C59.6024 8.32838 59.5454 8.65549 59.4243 8.96099C59.3032 9.26648 59.1206 9.54386 58.8879 9.77592ZM55.8239 9.37592C55.9944 9.54862 56.1974 9.68575 56.4212 9.77935C56.6451 9.87294 56.8853 9.92114 57.1279 9.92114C57.3706 9.92114 57.6108 9.87294 57.8346 9.77935C58.0585 9.68575 58.2615 9.54862 58.4319 9.37592C58.7771 9.00082 58.9687 8.50968 58.9687 7.99992C58.9687 7.49016 58.7771 6.99902 58.4319 6.62392C58.2615 6.45122 58.0585 6.31409 57.8346 6.22049C57.6108 6.1269 57.3706 6.0787 57.1279 6.0787C56.8853 6.0787 56.6451 6.1269 56.4212 6.22049C56.1974 6.31409 55.9944 6.45122 55.8239 6.62392C55.4788 6.99902 55.2872 7.49016 55.2872 7.99992C55.2872 8.50968 55.4788 9.00082 55.8239 9.37592Z" fill="white" stroke="white" stroke-width="0.16" stroke-miterlimit="10"/>
<path d="M60.4641 10.4001V5.6001H61.2081L63.544 9.3361V8.4081V5.6001H64.16V10.4001H63.5201L61.08 6.4881V7.4081V10.4001H60.4641Z" fill="white" stroke="white" stroke-width="0.16" stroke-miterlimit="10"/>
<path d="M54.5121 17.4C53.838 17.4016 53.1796 17.603 52.62 17.9788C52.0605 18.3546 51.6249 18.8879 51.3684 19.5112C51.112 20.1345 51.0461 20.8199 51.1791 21.4807C51.3122 22.1415 51.6382 22.748 52.1159 23.2234C52.5937 23.6989 53.2017 24.0221 53.8631 24.152C54.5244 24.282 55.2095 24.2129 55.8316 23.9535C56.4538 23.6941 56.985 23.256 57.3582 22.6947C57.7313 22.1334 57.9297 21.474 57.9281 20.8C57.9346 20.3503 57.8506 19.904 57.681 19.4875C57.5114 19.071 57.2598 18.6928 56.9411 18.3756C56.6223 18.0584 56.243 17.8085 55.8257 17.6409C55.4084 17.4733 54.9617 17.3914 54.5121 17.4ZM54.5121 22.864C54.0989 22.8929 53.6867 22.7968 53.3288 22.5883C52.971 22.3798 52.6842 22.0684 52.5057 21.6947C52.3272 21.321 52.2652 20.9023 52.3278 20.4929C52.3904 20.0835 52.5748 19.7024 52.8568 19.3992C53.1389 19.096 53.5057 18.8846 53.9095 18.7926C54.3133 18.7006 54.7354 18.7322 55.121 18.8833C55.5066 19.0343 55.8379 19.2979 56.0717 19.6398C56.3055 19.9816 56.4311 20.3858 56.4321 20.8C56.445 21.0624 56.4052 21.3247 56.3151 21.5715C56.2249 21.8183 56.0863 22.0446 55.9074 22.2369C55.7284 22.4293 55.5128 22.5839 55.2731 22.6916C55.0335 22.7993 54.7747 22.8579 54.5121 22.864ZM47.0561 17.4C46.382 17.4016 45.7236 17.603 45.164 17.9788C44.6045 18.3546 44.1689 18.8879 43.9124 19.5112C43.656 20.1345 43.5901 20.8199 43.7231 21.4807C43.8562 22.1415 44.1822 22.748 44.6599 23.2234C45.1377 23.6989 45.7457 24.0221 46.4071 24.152C47.0684 24.282 47.7535 24.2129 48.3756 23.9535C48.9978 23.6941 49.529 23.256 49.9022 22.6947C50.2753 22.1334 50.4736 21.474 50.4721 20.8C50.4786 20.3503 50.3946 19.904 50.225 19.4875C50.0554 19.071 49.8038 18.6928 49.4851 18.3756C49.1663 18.0584 48.787 17.8085 48.3697 17.6409C47.9524 17.4733 47.5057 17.3914 47.0561 17.4ZM47.0561 22.864C46.6429 22.8929 46.2307 22.7968 45.8728 22.5883C45.515 22.3798 45.2282 22.0684 45.0497 21.6947C44.8712 21.321 44.8092 20.9023 44.8718 20.4929C44.9344 20.0835 45.1188 19.7024 45.4008 19.3992C45.6829 19.096 46.0497 18.8846 46.4535 18.7926C46.8573 18.7006 47.2794 18.7322 47.665 18.8833C48.0506 19.0343 48.3819 19.2979 48.6157 19.6398C48.8495 19.9816 48.9751 20.3858 48.9761 20.8C48.989 21.0624 48.9492 21.3247 48.8591 21.5715C48.7689 21.8183 48.6303 22.0446 48.4514 22.2369C48.2724 22.4293 48.0568 22.5839 47.8171 22.6916C47.5775 22.7993 47.3187 22.8579 47.0561 22.864ZM38.1921 18.448V19.888H41.6481C41.5939 20.5662 41.3119 21.2062 40.8481 21.704C40.5014 22.0572 40.0844 22.3337 39.6242 22.5156C39.1639 22.6975 38.6705 22.7808 38.1761 22.76C37.1576 22.76 36.1809 22.3554 35.4608 21.6353C34.7406 20.9151 34.3361 19.9384 34.3361 18.92C34.3361 17.9016 34.7406 16.9248 35.4608 16.2047C36.1809 15.4846 37.1576 15.08 38.1761 15.08C39.1524 15.0655 40.0952 15.4362 40.8001 16.112L41.8161 15.096C41.3393 14.6244 40.7731 14.2527 40.1508 14.0027C39.5285 13.7527 38.8626 13.6294 38.1921 13.64C37.4809 13.6123 36.7714 13.7285 36.1062 13.9816C35.4409 14.2346 34.8336 14.6194 34.3207 15.1128C33.8077 15.6062 33.3996 16.1981 33.1209 16.8529C32.8421 17.5078 32.6984 18.2122 32.6984 18.924C32.6984 19.6357 32.8421 20.3401 33.1209 20.995C33.3996 21.6499 33.8077 22.2418 34.3207 22.7352C34.8336 23.2286 35.4409 23.6133 36.1062 23.8664C36.7714 24.1195 37.4809 24.2357 38.1921 24.208C38.8764 24.2353 39.5588 24.1176 40.1944 23.8625C40.83 23.6074 41.4045 23.2208 41.8801 22.728C42.7202 21.8051 43.1678 20.5913 43.1281 19.344C43.1309 19.0438 43.1068 18.7439 43.0561 18.448H38.1921ZM74.4401 19.568C74.2314 18.9542 73.8413 18.4182 73.3213 18.0311C72.8013 17.6439 72.1759 17.4238 71.5281 17.4C71.0905 17.3991 70.6573 17.488 70.2555 17.6612C69.8536 17.8344 69.4915 18.0882 69.1916 18.4068C68.8917 18.7255 68.6603 19.1023 68.5118 19.5139C68.3632 19.9255 68.3007 20.3632 68.3281 20.8C68.3212 21.5303 68.5508 22.2432 68.9826 22.8322C69.4143 23.4212 70.025 23.8548 70.7235 24.0681C71.4219 24.2814 72.1707 24.2631 72.8578 24.0158C73.545 23.7684 74.1337 23.3055 74.5361 22.696L73.3761 21.896C73.2031 22.1842 72.9579 22.4222 72.6646 22.5864C72.3713 22.7506 72.0402 22.8353 71.7041 22.832C71.3573 22.8463 71.0144 22.7554 70.7202 22.5712C70.4261 22.387 70.1946 22.1182 70.0561 21.8L74.6081 19.92L74.4401 19.568ZM69.8001 20.704C69.7839 20.4555 69.8174 20.2063 69.8987 19.9709C69.98 19.7355 70.1075 19.5187 70.2736 19.3332C70.4397 19.1477 70.6412 18.9972 70.8662 18.8905C71.0912 18.7839 71.3353 18.7232 71.5841 18.712C71.8418 18.6963 72.0985 18.7569 72.3219 18.8864C72.5454 19.0159 72.7256 19.2085 72.8401 19.44L69.8001 20.704ZM66.1041 24H67.6001V14H66.1041V24ZM63.6561 18.16H63.6001C63.3766 17.9055 63.1008 17.7022 62.7915 17.5642C62.4822 17.4261 62.1468 17.3564 61.8081 17.36C60.9338 17.4024 60.1094 17.7795 59.5056 18.4133C58.9019 19.047 58.5651 19.8887 58.5651 20.764C58.5651 21.6393 58.9019 22.481 59.5056 23.1147C60.1094 23.7484 60.9338 24.1256 61.8081 24.168C62.1472 24.1748 62.4837 24.1066 62.7935 23.9683C63.1033 23.83 63.3787 23.625 63.6001 23.368H63.6561V23.856C63.6561 25.16 62.9601 25.856 61.8401 25.856C61.4659 25.8478 61.1027 25.7285 60.7964 25.5135C60.4902 25.2984 60.2548 24.9971 60.1201 24.648L58.8241 25.184C59.0637 25.7858 59.4803 26.3007 60.0188 26.6607C60.5573 27.0206 61.1924 27.2087 61.8401 27.2C63.5921 27.2 65.0401 26.168 65.0401 23.656V17.6H63.6561V18.16ZM61.9361 22.864C61.4119 22.8313 60.9199 22.6001 60.5603 22.2173C60.2007 21.8346 60.0005 21.3292 60.0005 20.804C60.0005 20.2788 60.2007 19.7734 60.5603 19.3907C60.9199 19.0079 61.4119 18.7767 61.9361 18.744C62.1923 18.755 62.4436 18.8175 62.6752 18.9277C62.9067 19.0379 63.1137 19.1935 63.2839 19.3853C63.4541 19.5771 63.5839 19.8012 63.6657 20.0443C63.7475 20.2873 63.7796 20.5443 63.7601 20.8C63.7819 21.0565 63.7515 21.3149 63.6706 21.5593C63.5897 21.8038 63.4601 22.0293 63.2896 22.2222C63.1191 22.4152 62.9113 22.5715 62.6786 22.6818C62.446 22.7921 62.1934 22.8541 61.9361 22.864ZM81.4481 14H77.8641V24H79.3601V20.208H81.4481C81.8744 20.2386 82.3025 20.1811 82.7057 20.039C83.1088 19.8969 83.4784 19.6732 83.7913 19.382C84.1042 19.0908 84.3537 18.7382 84.5244 18.3463C84.695 17.9543 84.7831 17.5314 84.7831 17.104C84.7831 16.6765 84.695 16.2536 84.5244 15.8617C84.3537 15.4698 84.1042 15.1172 83.7913 14.826C83.4784 14.5348 83.1088 14.3111 82.7057 14.169C82.3025 14.0269 81.8744 13.9694 81.4481 14ZM81.4481 18.8H79.3601V15.392H81.4801C81.7049 15.392 81.9275 15.4363 82.1352 15.5223C82.3429 15.6083 82.5317 15.7344 82.6906 15.8934C82.8496 16.0524 82.9757 16.2411 83.0617 16.4488C83.1478 16.6565 83.1921 16.8792 83.1921 17.104C83.1921 17.3288 83.1478 17.5514 83.0617 17.7591C82.9757 17.9669 82.8496 18.1556 82.6906 18.3146C82.5317 18.4735 82.3429 18.5996 82.1352 18.6857C81.9275 18.7717 81.7049 18.816 81.4801 18.816L81.4481 18.8ZM90.6801 17.368C90.1353 17.3344 89.5926 17.4612 89.1191 17.7328C88.6456 18.0044 88.2621 18.4088 88.0161 18.896L89.3361 19.448C89.4694 19.2075 89.6696 19.0108 89.9124 18.8816C90.1551 18.7524 90.4301 18.6963 90.7041 18.72C90.894 18.6978 91.0864 18.7137 91.2701 18.7666C91.4538 18.8196 91.6252 18.9087 91.7741 19.0286C91.923 19.1484 92.0466 19.2968 92.1376 19.465C92.2286 19.6331 92.2852 19.8177 92.3041 20.008V20.104C91.823 19.8511 91.2875 19.7193 90.7441 19.72C89.3201 19.72 87.8641 20.52 87.8641 21.976C87.8782 22.2855 87.9543 22.589 88.088 22.8684C88.2216 23.1479 88.4101 23.3977 88.6422 23.6029C88.8742 23.8081 89.1452 23.9646 89.4389 24.063C89.7327 24.1615 90.0432 24.1999 90.3521 24.176C90.7275 24.1968 91.1016 24.1173 91.4362 23.9458C91.7708 23.7743 92.0538 23.5169 92.2561 23.2H92.3041V24H93.7441V20.152C93.7441 18.4 92.4161 17.384 90.7121 17.384L90.6801 17.368ZM90.4961 22.848C90.0081 22.848 89.3281 22.6 89.3281 22C89.3281 21.2 90.1761 20.928 90.9281 20.928C91.4033 20.9163 91.873 21.0323 92.2881 21.264C92.2378 21.6984 92.0318 22.1 91.7082 22.3942C91.3846 22.6884 90.9653 22.8553 90.5281 22.864L90.4961 22.848ZM98.9921 17.6L97.2801 21.936H97.2321L95.4561 17.6H93.8561L96.5201 23.664L95.0001 27.032H96.5601L100.656 17.6H98.9921ZM85.5521 24H87.0401V14H85.5521V24Z" fill="white"/>
<path d="M8.3521 6.03208C8.08847 6.34377 7.95396 6.74445 7.9761 7.15208V24.8481C7.94888 25.2564 8.08401 25.6589 8.3521 25.9681L8.4081 26.0321L18.3201 16.1201V15.8801L8.4081 5.97607L8.3521 6.03208Z" fill="url(#paint0_linear_2534_366)"/>
<path d="M21.5999 19.4239L18.3199 16.1199V15.8799L21.5999 12.5759L21.6719 12.6239L25.5999 14.8479C26.7199 15.4799 26.7199 16.5199 25.5999 17.1599L21.6879 19.3839L21.5999 19.4239Z" fill="url(#paint1_linear_2534_366)"/>
<path d="M21.6959 19.376L18.3199 16L8.35193 25.968C8.57799 26.1692 8.86734 26.285 9.16981 26.2952C9.47228 26.3054 9.76879 26.2095 10.0079 26.024L21.6959 19.376Z" fill="url(#paint2_linear_2534_366)"/>
<path d="M21.6959 12.6239L10.0079 5.98393C9.77035 5.79586 9.47407 5.69757 9.17119 5.70635C8.86831 5.71513 8.57822 5.83041 8.35193 6.03193L18.3199 15.9999L21.6959 12.6239Z" fill="url(#paint3_linear_2534_366)"/>
<path opacity="0.2" d="M21.5999 19.304L10.0079 25.904C9.77748 26.0779 9.49664 26.172 9.20793 26.172C8.91922 26.172 8.63837 26.0779 8.40793 25.904L8.35193 25.96L8.40793 26.024C8.63837 26.1979 8.91922 26.292 9.20793 26.292C9.49664 26.292 9.77748 26.1979 10.0079 26.024L21.6959 19.376L21.5999 19.304Z" fill="black"/>
<path opacity="0.12" d="M8.35189 25.856C8.09493 25.5387 7.969 25.1352 7.99989 24.728V24.848C7.97267 25.2563 8.1078 25.6589 8.37589 25.968L8.43189 25.912L8.35189 25.856Z" fill="black"/>
<path opacity="0.12" d="M25.6 17.04L21.6 19.304L21.672 19.376L25.6 17.152C25.8318 17.054 26.033 16.8952 26.1822 16.6925C26.3314 16.4897 26.4233 16.2505 26.448 16C26.398 16.2277 26.2952 16.4404 26.1479 16.621C26.0006 16.8017 25.8129 16.9452 25.6 17.04Z" fill="black"/>
<path opacity="0.25" d="M10.008 6.09593L25.6 14.9599C25.8129 15.0548 26.0005 15.1983 26.1478 15.3789C26.2951 15.5596 26.3979 15.7723 26.448 15.9999C26.4232 15.7494 26.3314 15.5102 26.1822 15.3075C26.033 15.1047 25.8318 14.946 25.6 14.8479L10.008 5.98393C8.89595 5.34393 7.97595 5.87193 7.97595 7.15193V7.27193C7.99995 5.99193 8.89595 5.46393 10.008 6.09593Z" fill="white"/>
</g>
<defs>
<linearGradient id="paint0_linear_2534_366" x1="17.4401" y1="6.96807" x2="4.0161" y2="20.3921" gradientUnits="userSpaceOnUse">
<stop stop-color="#00A0FF"/>
<stop offset="0.01" stop-color="#00A1FF"/>
<stop offset="0.26" stop-color="#00BEFF"/>
<stop offset="0.51" stop-color="#00D2FF"/>
<stop offset="0.76" stop-color="#00DFFF"/>
<stop offset="1" stop-color="#00E3FF"/>
</linearGradient>
<linearGradient id="paint1_linear_2534_366" x1="27.0639" y1="15.9999" x2="7.71195" y2="15.9999" gradientUnits="userSpaceOnUse">
<stop stop-color="#FFE000"/>
<stop offset="0.41" stop-color="#FFBD00"/>
<stop offset="0.78" stop-color="#FFA500"/>
<stop offset="1" stop-color="#FF9C00"/>
</linearGradient>
<linearGradient id="paint2_linear_2534_366" x1="19.8639" y1="17.84" x2="1.65593" y2="36.04" gradientUnits="userSpaceOnUse">
<stop stop-color="#FF3A44"/>
<stop offset="1" stop-color="#C31162"/>
</linearGradient>
<linearGradient id="paint3_linear_2534_366" x1="5.83993" y1="0.143927" x2="13.9679" y2="8.27193" gradientUnits="userSpaceOnUse">
<stop stop-color="#32A071"/>
<stop offset="0.07" stop-color="#2DA771"/>
<stop offset="0.48" stop-color="#15CF74"/>
<stop offset="0.8" stop-color="#06E775"/>
<stop offset="1" stop-color="#00F076"/>
</linearGradient>
<clipPath id="clip0_2534_366">
<rect width="108" height="32" fill="white"/>
</clipPath>
</defs>
</svg>
